<svg xmlns="http://www.w3.org/2000/svg" viewBox="0 0 519.27 179.07"><defs><style>.cls-1{fill:#ea5835;}.cls-2{fill:#fff;}</style></defs><g id="Laag_2" data-name="Laag 2"><g id="Laag_1-2" data-name="Laag 1"><circle class="cls-1" cx="89.54" cy="89.54" r="89.54"/><path class="cls-2" d="M28.22,108H40v12.39H36L20,171.83H6Zm-7,38.35H51l3.27,10H18Zm15-26V108H44l22.25,63.83H52.15Z"/><path class="cls-2" d="M75.21,108H88.57v63.83H75.21Z"/><path class="cls-2" d="M101.63,108H128a28.25,28.25,0,0,1,12.28,2.45,18,18,0,0,1,7.83,7,21,21,0,0,1,2.72,11v.08a20.41,20.41,0,0,1-3.12,11.22,17.19,17.19,0,0,1-8.43,7l13.45,25.13H137.55l-11.86-23.09H115v23.09H101.63Zm24.9,30.57a10.94,10.94,0,0,0,7.79-2.66,9.6,9.6,0,0,0,2.83-7.34v-.09a9.42,9.42,0,0,0-2.94-7.3,11.17,11.17,0,0,0-7.86-2.7H115v20.09Z"/><path class="cls-2" d="M162.06,108h13.36v63.83H162.06Zm6.68,53.88h18.18q5.72,0,8.76-2.37a8.11,8.11,0,0,0,3-6.83v-.09a8,8,0,0,0-5.48-8.08,18.64,18.64,0,0,0-6.64-1H168.74v-9.07H185q5.35,0,8.27-2.24a7.37,7.37,0,0,0,2.92-6.21v-.09a7,7,0,0,0-2.59-5.86Q191,118,186.39,118H168.74V108h21.1a25.43,25.43,0,0,1,10.4,2,15.23,15.23,0,0,1,6.74,5.5,15,15,0,0,1,2.37,8.47V124a13.46,13.46,0,0,1-1.59,6.46,13.94,13.94,0,0,1-4.38,4.91,14.15,14.15,0,0,1-6.28,2.43v.27a17.24,17.24,0,0,1,7.91,2.39,15.19,15.19,0,0,1,5.42,5.44,14.6,14.6,0,0,1,2,7.56v.09a16.66,16.66,0,0,1-10.28,16,28.58,28.58,0,0,1-11.79,2.23H168.74Z"/><path class="cls-2" d="M222.46,108h13.36v52.82h27.91v11H222.46Z"/><path class="cls-2" d="M283.85,168.93a26.93,26.93,0,0,1-10.69-11.41,38.5,38.5,0,0,1-3.76-17.58v-.09a38.1,38.1,0,0,1,3.78-17.56,27,27,0,0,1,10.71-11.39,35.28,35.28,0,0,1,32.71,0,27.17,27.17,0,0,1,10.66,11.39A38.24,38.24,0,0,1,331,139.85v.09a38.38,38.38,0,0,1-3.76,17.56,27.18,27.18,0,0,1-10.64,11.41,35.48,35.48,0,0,1-32.77,0Zm25.52-10a17,17,0,0,0,5.9-7.54,28.9,28.9,0,0,0,2.08-11.45v-.09a28.83,28.83,0,0,0-2.1-11.5,16.85,16.85,0,0,0-5.95-7.5,17,17,0,0,0-18.16,0,16.9,16.9,0,0,0-6,7.47,28.88,28.88,0,0,0-2.1,11.53v.09a28.9,28.9,0,0,0,2.1,11.5,17.15,17.15,0,0,0,5.95,7.52,17,17,0,0,0,18.25,0Z"/><path class="cls-2" d="M354.28,169a26.62,26.62,0,0,1-10.55-11.36q-3.72-7.4-3.72-17.7v0q0-10.31,3.72-17.67a26.54,26.54,0,0,1,10.55-11.33,31.65,31.65,0,0,1,16.16-4,30.77,30.77,0,0,1,13.81,3,25.49,25.49,0,0,1,9.73,8.27,24.7,24.7,0,0,1,4.29,12l0,.45H385.26l-.17-.75a15.78,15.78,0,0,0-2.7-6.15,13.32,13.32,0,0,0-5-4.07,15.71,15.71,0,0,0-7-1.46,15.15,15.15,0,0,0-8.89,2.63,17,17,0,0,0-5.81,7.45,29.07,29.07,0,0,0-2.06,11.5v0a29.67,29.67,0,0,0,2.06,11.61,16.73,16.73,0,0,0,5.84,7.52,15.14,15.14,0,0,0,8.86,2.63,16,16,0,0,0,6.86-1.41,13.37,13.37,0,0,0,5-4.1,16.29,16.29,0,0,0,2.88-6.48l.09-.44h13l0,.49a24.43,24.43,0,0,1-4.31,12,25.41,25.41,0,0,1-9.75,8.25,30.9,30.9,0,0,1-13.81,3A31.46,31.46,0,0,1,354.28,169Z"/><path class="cls-2" d="M409,108h13.36v63.83H409Zm12.83,29.19h.84L446.1,108H461l-23.45,28.88h-2.6L421.86,153Zm4.29,4.43,9.64-8.8,26.81,39h-16Z"/><path class="cls-2" d="M480.32,170.7a20.6,20.6,0,0,1-8.89-6.41,17.72,17.72,0,0,1-3.6-10.07l-.05-.7h12.61l.09.48a7.81,7.81,0,0,0,2.23,4.27,12.1,12.1,0,0,0,4.67,2.79,19.9,19.9,0,0,0,6.5,1,18.41,18.41,0,0,0,6.39-1,9.29,9.29,0,0,0,4.14-2.83,6.7,6.7,0,0,0,1.46-4.27v-.05a5.9,5.9,0,0,0-2.54-5.06c-1.7-1.22-4.52-2.23-8.48-3l-6.72-1.37q-9.42-1.86-14.22-6.39a15.44,15.44,0,0,1-4.8-11.75v0a17.12,17.12,0,0,1,3.19-10.18,20.67,20.67,0,0,1,8.62-6.76,30.73,30.73,0,0,1,12.56-2.44,32,32,0,0,1,12.77,2.33,19.57,19.57,0,0,1,8.38,6.5,18.09,18.09,0,0,1,3.31,9.8l0,.79H505.38l-.09-.53a7.65,7.65,0,0,0-1.88-4.29,10.28,10.28,0,0,0-4.09-2.74,18.19,18.19,0,0,0-11.72,0,8.38,8.38,0,0,0-3.78,2.72,6.51,6.51,0,0,0-1.31,4v0a5.72,5.72,0,0,0,2.57,4.88q2.57,1.84,8.05,2.95l6.77,1.37q10,2,14.7,6.3t4.67,11.83v.05a18.33,18.33,0,0,1-3.07,10.63,19.73,19.73,0,0,1-8.85,6.95,35.13,35.13,0,0,1-13.82,2.45A35.77,35.77,0,0,1,480.32,170.7Z"/></g></g></svg>