<svg xmlns="http://www.w3.org/2000/svg" viewBox="0 0 274.9 279.53"><defs><style>.cls-1{fill:#b7673d;}.cls-2{fill:#c47548;}</style></defs><g id="Laag_2" data-name="Laag 2"><g id="Laag_1-2" data-name="Laag 1"><path class="cls-1" d="M273.29,98.61c-.23-.72-.47-1.44-.7-2.16l.05-.06A139.77,139.77,0,1,0,139.78,279.53l15.31-.83c24.27,0,43.94-21,43.94-45.26a43.68,43.68,0,0,0-2.61-14.79l-2.17-5.05a43.86,43.86,0,0,1,37-58.53c.71,0,1.43,0,2.15,0l2.76-.52c21.62-3.07,38.39-21.2,38.76-43.38A44.7,44.7,0,0,0,273.29,98.61Z"/><path class="cls-2" d="M245.17,90.09a19.58,19.58,0,1,1-19.58-19.58A19.58,19.58,0,0,1,245.17,90.09Z"/><path class="cls-2" d="M191.65,45.84a19.59,19.59,0,1,1-19.58-19.58A19.58,19.58,0,0,1,191.65,45.84Z"/><path class="cls-2" d="M117.56,50.17A19.58,19.58,0,1,1,98,30.59,19.57,19.57,0,0,1,117.56,50.17Z"/><path class="cls-2" d="M67.14,102.42a19.59,19.59,0,1,1-19.6-19.59A19.6,19.6,0,0,1,67.14,102.42Z"/><path class="cls-2" d="M69.19,176.29A19.59,19.59,0,1,1,49.62,156.7,19.58,19.58,0,0,1,69.19,176.29Z"/><path class="cls-2" d="M120.13,229.53A19.58,19.58,0,1,1,100.54,210,19.58,19.58,0,0,1,120.13,229.53Z"/></g></g></svg>