<svg id="Laag_1" data-name="Laag 1" xmlns="http://www.w3.org/2000/svg" viewBox="0 0 143.28 204.63"><defs><style>.cls-1{fill:#f49c63;}.cls-2{fill:#f6f6f6;}.cls-3{fill:#3c3c3b;}.cls-4{fill:#4e4140;}.cls-5{fill:#266780;}.cls-6{fill:#c47548;}.cls-7{fill:#f7b290;}.cls-8{fill:#396872;}.cls-9{fill:#80403a;}.cls-10{opacity:0.25;}.cls-11{fill:#2b2c2c;}.cls-12{fill:#acd6c4;}.cls-13{opacity:0.2;}.cls-14{opacity:0.3;}.cls-15{fill:#fff;}.cls-16{fill:#e27172;}.cls-17{fill:#f9dec1;}.cls-18{fill:#3a484c;}.cls-19{fill:#ea5835;}.cls-20{fill:#ce4b30;}</style></defs><ellipse class="cls-1" cx="57.13" cy="145.82" rx="3.3" ry="4.28" transform="translate(-53.56 35.03) rotate(-23.58)"/><ellipse class="cls-1" cx="62.6" cy="143.44" rx="3.3" ry="4.28" transform="translate(-52.15 37.01) rotate(-23.58)"/><rect class="cls-1" x="45.81" y="145.41" width="30.37" height="37.16" rx="10.76"/><circle class="cls-2" cx="57.48" cy="155.8" r="3.52"/><circle class="cls-3" cx="57.48" cy="155.8" r="2.45"/><circle class="cls-2" cx="64.96" cy="155.8" r="3.52"/><circle class="cls-3" cx="64.96" cy="155.8" r="2.45"/><path class="cls-4" d="M61,164.08a2.74,2.74,0,0,0,2.74-2.74H58.29A2.74,2.74,0,0,0,61,164.08Z"/><path class="cls-5" d="M53.35,178.55a5.14,5.14,0,0,0-4.92,4.78A.58.58,0,0,0,49,184H57.7a.56.56,0,0,0,.56-.63A5.13,5.13,0,0,0,53.35,178.55Z"/><path class="cls-5" d="M67,178.55a5.12,5.12,0,0,0-4.91,4.78.56.56,0,0,0,.56.63h8.7a.58.58,0,0,0,.57-.63A5.14,5.14,0,0,0,67,178.55Z"/><circle class="cls-6" cx="45.81" cy="166.81" r="3.3"/><circle class="cls-6" cx="76.18" cy="166.81" r="3.3"/><circle class="cls-7" cx="51.65" cy="160.81" r="2.86"/><circle class="cls-7" cx="70.27" cy="160.81" r="2.86"/><path class="cls-8" d="M42.81,141.54s.25,8.13.26,13.36-.26,13.36-.26,13.36c0,.28-.51.27-.52,0,0,0-.25-8.13-.25-13.36s.25-13.36.25-13.36C42.34,141.27,42.78,141.27,42.81,141.54Z"/><path class="cls-8" d="M68.07,141.54s.25,8.13.25,13.36-.25,13.36-.25,13.36c0,.28-.51.27-.52,0,0,0-.25-8.13-.25-13.36s.25-13.36.25-13.36C67.6,141.27,68,141.27,68.07,141.54Z"/><path class="cls-8" d="M92.65,141.54s.25,8.13.25,13.36-.25,13.36-.25,13.36c0,.28-.51.27-.53,0,0,0-.24-8.13-.24-13.36s.24-13.36.24-13.36C92.17,141.27,92.62,141.27,92.65,141.54Z"/><path class="cls-8" d="M50.06,142.46s-2,2.29-3.31,3.66-3.66,3.31-3.66,3.31-.44-.29-.38-.37,1.95-2.29,3.31-3.66,3.66-3.31,3.66-3.31S50.1,142.37,50.06,142.46Z"/><path class="cls-8" d="M74.53,142.46s-1.94,2.29-3.31,3.66-3.65,3.31-3.65,3.31-.44-.29-.38-.37,2-2.29,3.31-3.66,3.66-3.31,3.66-3.31S74.58,142.37,74.53,142.46Z"/><path class="cls-8" d="M61.37,142.09S63.66,144,65,145.4s3.31,3.66,3.31,3.66-.29.43-.37.37-2.3-2-3.66-3.31S61,142.46,61,142.46,61.28,142,61.37,142.09Z"/><path class="cls-8" d="M85.55,142.09s2.29,1.95,3.66,3.31,3.31,3.66,3.31,3.66-.29.43-.37.37-2.3-2-3.66-3.31-3.31-3.66-3.31-3.66S85.46,142,85.55,142.09Z"/><path class="cls-9" d="M84.59,197.9a27.1,27.1,0,0,1-15.2,4.18c-23,0-30.67-13-27.13-34.2H92.39C96.6,181.13,93.17,192.19,84.59,197.9Z"/><g class="cls-10"><path class="cls-11" d="M84.59,197.9a27.1,27.1,0,0,1-15.2,4.18c-23,0-30.67-13-27.13-34.2h13c-5.86,8.13,1,21.6,9.37,26.46C70.35,197.56,77.71,197.9,84.59,197.9Z"/></g><path class="cls-12" d="M92.61,168.41s0,.07,0,.21-.07.34-.16.59-.19.56-.33.92a10.84,10.84,0,0,1-.55,1.18,10,10,0,0,1-2.14,2.74,10.31,10.31,0,0,1-3.81,2.1,12.87,12.87,0,0,1-4.87.48,16.81,16.81,0,0,1-5-1.22,18.72,18.72,0,0,1-4.42-2.59,19.25,19.25,0,0,1-1.81-1.67c-.27-.29-.55-.58-.79-.89-.12-.15-.24-.31-.36-.45l-.08-.1,0,0-.06-.08h0l-.19.19-.44.43a12.8,12.8,0,0,1-2,1.47,19.29,19.29,0,0,1-4.75,1.91,24.74,24.74,0,0,1-9.85.51,16.73,16.73,0,0,1-4.12-1.17,9.87,9.87,0,0,1-2.91-1.87,7.19,7.19,0,0,1-1.43-1.84,3.87,3.87,0,0,1-.35-.77c-.23-.64.43-.78.65-.27a3.31,3.31,0,0,0,.34.68,6.4,6.4,0,0,0,1.33,1.6,12.47,12.47,0,0,0,6.64,2.62,24,24,0,0,0,9.37-.71,18.08,18.08,0,0,0,4.39-1.84,11.77,11.77,0,0,0,1.8-1.32,4.54,4.54,0,0,0,.38-.38l.09-.09,0,0,0,0,0,0,.37-.45.36-.43.18-.22.09-.11,0-.05a.09.09,0,0,1,0,.05l.59.82.29.41c.09.12.21.31.25.35l.34.41a9.3,9.3,0,0,0,.72.83,16.44,16.44,0,0,0,1.66,1.56,17.77,17.77,0,0,0,4.06,2.47,16.16,16.16,0,0,0,4.62,1.24,12.23,12.23,0,0,0,4.47-.33,9.5,9.5,0,0,0,3.5-1.8,8.79,8.79,0,0,0,2-2.44c.25-.38.39-.77.56-1.08l.33-.86c.09-.23.13-.43.17-.55l.06-.2C92.15,167.67,92.73,167.79,92.61,168.41Z"/><path class="cls-12" d="M42.85,183.6a5.22,5.22,0,0,1-3,.2c-8.85-1.77-.88-13.27,2.66-15.92v.29a1.39,1.39,0,0,0,.06.19C43.72,171.62,47.33,181.71,42.85,183.6Z"/><path class="cls-12" d="M96.68,183.32a7.27,7.27,0,0,1-1.55.48c-8.35,1.39-4.34-10.63-2.88-15,.06-.17.12-.34.16-.48s0-.14.07-.2v-.29a7.38,7.38,0,0,1,.66.55C96.62,171.6,102.55,180.71,96.68,183.32Z"/><path class="cls-12" d="M72,184.1a.47.47,0,0,1-.05.1,4.76,4.76,0,0,1-7.52,1.67c-4.72-3.86-1-9.54,1.89-14.08.71-1.13,1.38-2.19,1.85-3.13l.09.1c1.09,2.36,2.27,4.72,3.25,7.17S73.22,181.44,72,184.1Z"/><g class="cls-13"><path class="cls-11" d="M72,184.2a4.76,4.76,0,0,1-7.52,1.67c-4.72-3.86-1-9.54,1.89-14.08C64.57,176.88,66.58,182.64,72,184.2Z"/></g><g class="cls-13"><path class="cls-11" d="M69.61,169a11.1,11.1,0,0,0-1.28-.72c.13-.16.26-.31.4-.46Z"/></g><g class="cls-14"><path class="cls-15" d="M96.68,183.32c.41-5.46-.66-11.2-4.43-14.47a7.72,7.72,0,0,0-.72-.56l.88.08.73.06C96.62,171.6,102.55,180.71,96.68,183.32Z"/></g><g class="cls-13"><path class="cls-11" d="M42.85,183.6a5.22,5.22,0,0,1-3,.2c-8.85-1.77-.88-13.27,2.66-15.92v.29a1.39,1.39,0,0,0,.06.19C39.42,173.52,38.63,179.73,42.85,183.6Z"/></g><path class="cls-16" d="M117.55,106l.47-.6h0Z"/><path class="cls-17" d="M117.55,106l-.15.18Z"/><polygon class="cls-18" points="95.34 130.43 95.19 131.02 92.39 141.93 42.26 141.93 42.26 142.22 39.31 130.72 39.06 130.13 95.29 130.13 95.34 130.43"/><path class="cls-19" d="M138.17,57.36a1.21,1.21,0,0,0,0-.19C139,31.36,122.51,14.52,101,6.6h0c-1.91-.72-3.88-1.35-5.88-1.91l-.54-.16c-1.07-.29-2.15-.57-3.24-.82l-.55-.12h-.07c-.56-.13-1.13-.23-1.69-.35A90.84,90.84,0,0,0,76.42,1.51H76.3a92.74,92.74,0,0,0-13,.05c-.54,0-1.07.08-1.61.14h0A86.68,86.68,0,0,0,48.2,4c-.44.11-.88.22-1.3.35h0A74.61,74.61,0,0,0,35.23,8.49h0Q32.8,9.6,30.51,10.88c-1,.53-1.87,1.07-2.77,1.62l-.3.19c-.79.48-1.56,1-2.3,1.46l-.14.08-.38.27c-.55.37-1.1.74-1.63,1.12l-.44.32c-.54.39-1.08.78-1.6,1.18l-.32.25c-.55.43-1.09.85-1.61,1.28l-.12.11A53.35,53.35,0,0,0,10,28.06l-.12.16c-.34.45-.65.91-1,1.37l-.22.33c-.29.43-.56.86-.83,1.3l-.27.42c-.25.42-.48.84-.72,1.26l-.27.49Q6.26,34,6,34.62l-.27.53c-.19.4-.38.81-.56,1.22l-.24.56c-.17.4-.33.8-.49,1.21-.08.19-.15.39-.22.58-.15.4-.29.81-.43,1.21l-.2.6c-.12.41-.25.81-.36,1.22-.06.2-.12.4-.17.6-.11.41-.21.82-.31,1.23,0,.21-.09.41-.14.61-.09.41-.18.83-.26,1.24,0,.2-.07.4-.1.6-.08.43-.15.85-.21,1.27,0,.19-.05.39-.08.58-.06.43-.11.87-.15,1.3,0,.18,0,.37-.05.56,0,.44-.08.89-.11,1.33,0,.17,0,.34,0,.52,0,.46-.05.92-.06,1.39v.44q0,.73,0,1.47c0,.11,0,.21,0,.32,0,.54,0,1.07.06,1.61v0a62,62,0,0,0,1.72,11.2l.06.26c.13.52.27,1.05.41,1.57,0,.13.07.27.11.4.14.49.28,1,.43,1.49,0,.16.1.32.14.48.15.48.3,1,.46,1.44l.17.53c.16.47.32.94.49,1.41.06.19.13.37.19.56.17.46.34.93.52,1.39.07.19.14.38.22.58q.26.69.54,1.38l.24.58q.27.69.57,1.38c.08.19.17.39.25.59.2.45.4.91.61,1.37.08.19.17.39.26.58.21.46.42.92.64,1.38L9.9,86c.22.46.44.93.67,1.39l.28.55c.23.47.47.94.71,1.41l.27.52.75,1.43c.09.16.17.32.26.47.26.5.53,1,.8,1.48.08.13.15.27.22.4.29.51.58,1,.88,1.54l.16.29,1,1.65a.22.22,0,0,1,.05.08c2.2,3.7,4.55,7.35,7,10.94l.13.19,1,1.48.26.39,1,1.35.37.51.91,1.26.42.57.88,1.2.47.63c.28.38.56.76.85,1.13l.52.69.82,1.08.55.71c.26.35.53.69.79,1l.59.76c.26.32.51.65.76,1l.64.8.72.91.69.85.67.84.76.93.59.73.85,1,.51.63.27.31c.14.18.28.35.43.52l.54.66h0l7,0,5,0h1.26l6.11,0,6.78,0h1.31l3.3,0h3l6.89,0,3.85,0h1.8l8.3,0h.15c7.71-8.23,16.76-17.74,24.61-28.2l.1-.14c.52-.69,1-1.38,1.55-2.09l.1-.14c1.61-2.22,3.15-4.49,4.61-6.79l.17-.27c.42-.67.84-1.34,1.24-2,.07-.1.13-.21.19-.31,1.38-2.29,2.66-4.62,3.82-7l.2-.4c.31-.65.62-1.29.92-1.94.07-.16.15-.32.22-.49.31-.68.61-1.38.9-2.07,0-.09.08-.18.11-.27.59-1.43,1.14-2.88,1.64-4.33,0-.14.09-.28.13-.42l.23-.69c.18-.58.36-1.15.53-1.73.07-.26.15-.52.22-.78.15-.57.3-1.13.44-1.7.06-.25.13-.49.18-.74.17-.7.32-1.4.46-2.1,0-.08,0-.17,0-.26s.07-.33.1-.49q.39-2.18.6-4.38c0-.18,0-.37,0-.56C138.08,58.94,138.14,58.15,138.17,57.36Z"/><path class="cls-20" d="M53.12,130.08l-.28.16-13.16.07C9.87,94.66-24,42.06,30.33,11.67,31.84,10.82,33.41,10,35,9.29-6.58,42.36,25.08,94.24,53.12,130.08Z"/></svg>