<svg xmlns="http://www.w3.org/2000/svg" viewBox="0 0 172.66 208.57"><defs><style>.cls-1{fill:#f49c63;}.cls-2{fill:#f6f6f6;}.cls-3{fill:#3c3c3b;}.cls-4{fill:#4e4140;}.cls-5{fill:#266780;}.cls-6{fill:#c47548;}.cls-7{fill:#f7b290;}</style></defs><g id="Laag_2" data-name="Laag 2"><g id="Laag_1-2" data-name="Laag 1"><ellipse class="cls-1" cx="68.3" cy="30.49" rx="15.41" ry="20" transform="translate(-6.49 29.87) rotate(-23.58)"/><ellipse class="cls-1" cx="93.83" cy="19.34" rx="15.41" ry="20" transform="translate(0.1 39.15) rotate(-23.58)"/><rect class="cls-1" x="15.41" y="28.53" width="141.85" height="173.53" rx="30.53"/><circle class="cls-2" cx="69.94" cy="77.05" r="16.42"/><circle class="cls-3" cx="69.94" cy="77.08" r="11.43"/><circle class="cls-2" cx="104.86" cy="77.05" r="16.42"/><circle class="cls-3" cx="104.86" cy="77.08" r="11.43"/><path class="cls-4" d="M86.5,115.74A12.79,12.79,0,0,0,99.28,103H73.71A12.79,12.79,0,0,0,86.5,115.74Z"/><path class="cls-5" d="M50.62,183.31c-11.85,0-21.62,9.76-22.95,22.32a2.64,2.64,0,0,0,2.62,2.94H71a2.65,2.65,0,0,0,2.63-2.94C72.24,193.07,62.47,183.31,50.62,183.31Z"/><path class="cls-5" d="M114.25,183.31c-11.85,0-21.62,9.76-23,22.32a2.64,2.64,0,0,0,2.62,2.94h40.66a2.65,2.65,0,0,0,2.63-2.94C135.87,193.07,126.11,183.31,114.25,183.31Z"/><circle class="cls-6" cx="15.41" cy="128.49" r="15.41"/><circle class="cls-6" cx="157.26" cy="128.49" r="15.41"/><circle class="cls-7" cx="129.64" cy="100.45" r="13.35"/><circle class="cls-7" cx="44.66" cy="100.45" r="13.35"/></g></g></svg>