<svg xmlns="http://www.w3.org/2000/svg" viewBox="0 0 900 400"><defs><style>.cls-1{fill:#ede1ca;}.cls-2{fill:#36a4c3;}.cls-3{fill:#3192a8;}.cls-4{fill:#f6f6f6;}.cls-5{fill:#3c3c3b;}.cls-6{fill:#eaa548;}.cls-7{fill:#d38f3d;}.cls-8{fill:none;stroke:#575756;stroke-miterlimit:10;}</style></defs><g id="Laag_2" data-name="Laag 2"><g id="Laag_1-2" data-name="Laag 1"><path class="cls-1" d="M235,159.56c0-10.18-21.69-18.44-48.46-18.44a122.8,122.8,0,0,0-13.71.76c-7.06-8.5-28-14.67-52.63-14.67-19,0-35.85,3.68-45.77,9.26a59.3,59.3,0,0,0-12.88-1.35c-13.88,0-25.14,4.28-25.14,9.56a3.85,3.85,0,0,0,.09.76C15.82,146.64,0,153.43,0,161.62c0,8.52,17.09,15.51,38.93,16.3l0,.08h152.4v-.1C215.85,177,235,169.12,235,159.56Z"/><path class="cls-2" d="M42.66,58.84h64.11a13.42,13.42,0,0,1,13.42,13.42v78.27a19.57,19.57,0,0,1-19.57,19.57H48.81a19.57,19.57,0,0,1-19.57-19.57V72.26A13.42,13.42,0,0,1,42.66,58.84Z"/><circle class="cls-3" cx="105.51" cy="107.81" r="2.86"/><circle class="cls-3" cx="104.48" cy="97.79" r="2.86"/><circle class="cls-3" cx="112.34" cy="102.97" r="2.86"/><circle class="cls-3" cx="43.92" cy="107.81" r="2.86"/><circle class="cls-3" cx="44.95" cy="97.79" r="2.86"/><circle class="cls-3" cx="37.09" cy="102.97" r="2.86"/><circle class="cls-4" cx="64.21" cy="89.95" r="10.53"/><circle class="cls-5" cx="64.21" cy="89.96" r="7.33"/><circle class="cls-4" cx="86.6" cy="89.95" r="10.53"/><circle class="cls-5" cx="86.6" cy="89.96" r="7.33"/><path class="cls-5" d="M74.82,114.75a8.2,8.2,0,0,0,8.2-8.2H66.62A8.2,8.2,0,0,0,74.82,114.75Z"/><circle class="cls-3" cx="29.24" cy="122.93" r="9.88"/><circle class="cls-2" cx="57.35" cy="58.3" r="9.88"/><circle class="cls-2" cx="75.21" cy="58.3" r="9.88"/><circle class="cls-2" cx="92.82" cy="58.3" r="9.88"/><circle class="cls-3" cx="120.19" cy="122.93" r="9.88"/><path class="cls-6" d="M140.28,34.07h57.08A17.65,17.65,0,0,1,215,51.73v86.93a30.53,30.53,0,0,1-30.53,30.53H153.16a30.53,30.53,0,0,1-30.53-30.53V51.73A17.65,17.65,0,0,1,140.28,34.07Z"/><path class="cls-5" d="M145.56,157c-7.72,0-14.08,6.35-14.95,14.53a1.73,1.73,0,0,0,1.71,1.92H158.8a1.73,1.73,0,0,0,1.71-1.92C159.64,163.33,153.28,157,145.56,157Z"/><path class="cls-5" d="M187,157c-7.72,0-14.08,6.35-14.95,14.53a1.74,1.74,0,0,0,1.71,1.92h26.49a1.74,1.74,0,0,0,1.71-1.92C201.09,163.33,194.72,157,187,157Z"/><circle class="cls-7" cx="122.62" cy="105.11" r="10.03"/><circle class="cls-7" cx="215.01" cy="105.11" r="10.03"/><circle class="cls-7" cx="201.76" cy="74.34" r="8.69"/><circle class="cls-7" cx="137.97" cy="74.34" r="8.69"/><line class="cls-8" x1="164.21" y1="83.54" x2="189.53" y2="80.57"/><line class="cls-8" x1="189.47" y1="75.11" x2="190.54" y2="85"/><circle class="cls-4" cx="157.72" cy="58.79" r="11.37"/><circle class="cls-5" cx="157.72" cy="58.81" r="7.92"/><circle class="cls-4" cx="181.91" cy="58.79" r="11.37"/><circle class="cls-5" cx="181.91" cy="58.81" r="7.92"/><ellipse class="cls-6" cx="158.77" cy="18.36" rx="6.4" ry="20.3" transform="translate(8.71 73.37) rotate(-26.73)"/><ellipse class="cls-6" cx="175" cy="24.61" rx="13.3" ry="6.4" transform="translate(74.3 169.84) rotate(-63.27)"/><path class="cls-5" d="M51.82,158.08c-7.6,0-13.86,6.25-14.72,14.31a1.7,1.7,0,0,0,1.68,1.88H64.86a1.7,1.7,0,0,0,1.68-1.88C65.68,164.33,59.42,158.08,51.82,158.08Z"/><path class="cls-5" d="M92.62,158.08c-7.6,0-13.87,6.25-14.72,14.31a1.69,1.69,0,0,0,1.68,1.88h26.07a1.71,1.71,0,0,0,1.69-1.88C106.48,164.33,100.22,158.08,92.62,158.08Z"/></g></g></svg>