<svg xmlns="http://www.w3.org/2000/svg" viewBox="0 0 220.01 107.01"><defs><style>.cls-1{fill:#193f92;}.cls-2{fill:#7699d0;}.cls-3{fill:#fff;}.cls-4{fill:#c39dc9;}.cls-5{fill:#bfe1e6;}.cls-6{fill:#f49c63;}.cls-7{fill:#f6f6f6;}.cls-8{fill:#3c3c3b;}.cls-9{fill:#4e4140;}.cls-10{fill:#c47548;}.cls-11{fill:#f7b290;}</style></defs><g id="Laag_2" data-name="Laag 2"><g id="Laag_1-2" data-name="Laag 1"><rect class="cls-1" x="53.91" width="166.1" height="107.01" rx="3.16"/><path class="cls-2" d="M211.57,9.7V97.32a7.29,7.29,0,0,1-5.22,7,30.88,30.88,0,0,1-4.66.34H65.39a7.3,7.3,0,0,1-7.32-7.35V9.7a7.35,7.35,0,0,1,7.32-7.38H204.2A7.38,7.38,0,0,1,211.57,9.7Z"/><path class="cls-3" d="M79.89,74.63a.3.3,0,0,1-.25-.12L77.8,72.05l-2.42,2.24a.31.31,0,0,1-.24.08.36.36,0,0,1-.23-.13L69.7,66.87l-7.21,6.46a.31.31,0,0,1-.44,0,.31.31,0,0,1,0-.44l7.47-6.69a.35.35,0,0,1,.24-.08.32.32,0,0,1,.22.13l5.21,7.37,2.41-2.24a.35.35,0,0,1,.24-.08.36.36,0,0,1,.23.13l1.77,2.36,6.18-10.24a.28.28,0,0,1,.29-.15.32.32,0,0,1,.27.19l3.19,7.82,1.82-3a.28.28,0,0,1,.32-.14.3.3,0,0,1,.25.25L93,73.23l4.61-8.79a.33.33,0,0,1,.43-.13.31.31,0,0,1,.13.42l-5,9.6a.31.31,0,0,1-.59-.09l-.81-4.81L90,72.24a.28.28,0,0,1-.29.14.28.28,0,0,1-.26-.19l-3.2-7.82-6.1,10.11a.29.29,0,0,1-.25.15Z"/><path class="cls-3" d="M99.65,61.24a18.7,18.7,0,0,0,.14,6.12L97.66,65l-3.13-.43A18.69,18.69,0,0,0,99.65,61.24Z"/><path class="cls-3" d="M183.1,19.1a.41.41,0,0,0-.4.39,7,7,0,0,0,0,.81,5.06,5.06,0,0,0,.1.71,5.17,5.17,0,0,0,.2.82,5.68,5.68,0,0,0,.32.81,6.28,6.28,0,0,0,.43.81,8.58,8.58,0,0,0,.51.72A7.62,7.62,0,0,0,185,25a7.39,7.39,0,0,0,.7.67c.31.28.65.55,1,.81.68.52,1.39,1,2.11,1.49.19.11.36.22.53.34l.21.15c.33.21.65.41,1,.63s.79.53,1.16.8.54.41.8.64a11.84,11.84,0,0,1,.92.81c.22.23.44.46.64.71a6.81,6.81,0,0,1,.59.82,3.88,3.88,0,0,1,.42.81,4.47,4.47,0,0,1,.31.82,3.88,3.88,0,0,1,.16.71,4.28,4.28,0,0,1,.08.81,1.71,1.71,0,0,1,0,.39,2,2,0,0,1,0,.42,5.29,5.29,0,0,1-.08.81c0,.25-.1.49-.17.73a5.64,5.64,0,0,1-.31.81,6.35,6.35,0,0,1-.44.81,5.56,5.56,0,0,1-.59.81,6.49,6.49,0,0,1-.66.73,9.87,9.87,0,0,1-.9.8c-.28.23-.57.45-.87.68s-.78.54-1.19.81-.55.37-.83.54l-.21.15c-.17.12-.35.23-.53.34-.74.49-1.49,1-2.19,1.54a10.71,10.71,0,0,0-1,.8,6.68,6.68,0,0,0-.66.64,6.06,6.06,0,0,0-.71.81,8.3,8.3,0,0,0-.5.71,6.59,6.59,0,0,0-.44.83,7,7,0,0,0-.31.8,5.45,5.45,0,0,0-.2.82,4,4,0,0,0-.1.71,6.57,6.57,0,0,0,0,.78,7.28,7.28,0,0,0,0,.84,6.7,6.7,0,0,0,.13.82c0,.24.12.48.19.72a4.75,4.75,0,0,0,.33.81,4.62,4.62,0,0,0,.45.81,10,10,0,0,0,1.22,1.54,9.48,9.48,0,0,0,.87.8c.26.24.56.46.85.68s.74.55,1.13.81l.9.61c.19.11.36.22.53.34l.21.15c.51.33,1,.65,1.49,1s.75.53,1.1.81a7.92,7.92,0,0,1,.77.64,10.47,10.47,0,0,1,.82.81,4.87,4.87,0,0,1,.58.71,5.85,5.85,0,0,1,.52.81,5.92,5.92,0,0,1,.37.81,4.42,4.42,0,0,1,.23.81,3.6,3.6,0,0,1,.13.73,7,7,0,0,1,.06.81.41.41,0,0,0,.4.43.4.4,0,0,0,.4-.41,7.21,7.21,0,0,0,0-.83,5.84,5.84,0,0,0-.11-.73,6.86,6.86,0,0,0-.21-.81,4.79,4.79,0,0,0-.34-.81,5.31,5.31,0,0,0-.44-.81,5,5,0,0,0-.49-.71c-.22-.28-.46-.55-.71-.81s-.43-.44-.67-.64-.66-.55-1-.81c-.67-.52-1.38-1-2.1-1.48-.17-.11-.36-.22-.53-.34l-.23-.14-.19-.13c-.41-.27-.81-.53-1.2-.81s-.65-.44-.95-.68a11.16,11.16,0,0,1-1-.8,8.73,8.73,0,0,1-.76-.73,8.46,8.46,0,0,1-.67-.81,5.85,5.85,0,0,1-.52-.81,5.67,5.67,0,0,1-.58-1.53,3.61,3.61,0,0,1-.15-.82,5.32,5.32,0,0,1-.06-.81,5.1,5.1,0,0,1,.05-.81,5.27,5.27,0,0,1,.11-.71,5.54,5.54,0,0,1,.24-.82,5.75,5.75,0,0,1,.36-.8,5.9,5.9,0,0,1,.5-.83c.17-.24.37-.48.57-.71a10.47,10.47,0,0,1,.82-.81c.24-.22.49-.43.74-.64s.73-.54,1.1-.8,1-.7,1.56-1.06a1.42,1.42,0,0,0,.23-.14l.52-.34c.51-.34,1-.68,1.51-1s.74-.53,1.08-.81.53-.45.78-.68a8.29,8.29,0,0,0,.77-.8,6.53,6.53,0,0,0,.57-.73,5.85,5.85,0,0,0,.52-.81,7.49,7.49,0,0,0,.38-.81,7,7,0,0,0,.27-.81,5.88,5.88,0,0,0,.14-.73,4.28,4.28,0,0,0,.08-.81,3,3,0,0,0,0-.42,2.55,2.55,0,0,0,0-.39,5.31,5.31,0,0,0-.07-.81,6.87,6.87,0,0,0-.14-.71,5.63,5.63,0,0,0-.27-.82,5.42,5.42,0,0,0-.37-.81A6,6,0,0,0,195,32a6.14,6.14,0,0,0-.55-.71,7.46,7.46,0,0,0-.78-.81c-.23-.23-.47-.43-.72-.64s-.68-.54-1-.8c-.52-.39-1.07-.75-1.62-1.12-.17-.11-.36-.22-.53-.34l-.23-.14c-.5-.34-1-.66-1.48-1s-.77-.53-1.12-.81a10.33,10.33,0,0,1-.79-.67,10.47,10.47,0,0,1-.82-.81,6.53,6.53,0,0,1-.58-.72,5.7,5.7,0,0,1-.5-.81,5.87,5.87,0,0,1-.36-.81,5.21,5.21,0,0,1-.24-.82,5,5,0,0,1-.11-.71,5.08,5.08,0,0,1-.05-.79A.41.41,0,0,0,183.1,19.1Z"/><path class="cls-3" d="M196,19.1a.4.4,0,0,0-.39.39,6.77,6.77,0,0,1-.05.81,3.9,3.9,0,0,1-.12.71,5.19,5.19,0,0,1-.23.82,5.87,5.87,0,0,1-.36.81,5.7,5.7,0,0,1-.5.81,6.63,6.63,0,0,1-.59.72A8.84,8.84,0,0,1,193,25a10.33,10.33,0,0,1-.79.67c-.36.28-.73.55-1.12.81s-1,.67-1.5,1l-.21.14-.52.34c-.56.36-1.1.73-1.62,1.12-.37.25-.71.52-1,.8a8.8,8.8,0,0,0-.73.64,8.65,8.65,0,0,0-.79.81c-.2.23-.38.46-.56.71a5.8,5.8,0,0,0-.5.82,4.57,4.57,0,0,0-.37.81,3.94,3.94,0,0,0-.27.82,5,5,0,0,0-.14.71,4.28,4.28,0,0,0-.07.81,2.55,2.55,0,0,0,0,.39,3,3,0,0,0,0,.42,4.28,4.28,0,0,0,.08.81,4.29,4.29,0,0,0,.14.73,5.5,5.5,0,0,0,.27.81,5,5,0,0,0,.38.81,5.85,5.85,0,0,0,.52.81,5,5,0,0,0,.58.73,7.24,7.24,0,0,0,.77.8c.25.23.51.46.78.68s.7.55,1.07.81,1,.69,1.5,1c.18.11.36.22.53.34l.21.14c.54.35,1.07.69,1.58,1.06s.75.53,1.09.8.51.42.75.64a8.84,8.84,0,0,1,.81.81c.21.23.4.47.58.71a5.9,5.9,0,0,1,.5.83,5.75,5.75,0,0,1,.36.8,5.51,5.51,0,0,1,.23.82,4,4,0,0,1,.12.71,6.53,6.53,0,0,1,.05.78,7.05,7.05,0,0,1-.06.84,3.61,3.61,0,0,1-.15.82,5.67,5.67,0,0,1-.58,1.53,5.85,5.85,0,0,1-.52.81,7.3,7.3,0,0,1-.68.81,7.4,7.4,0,0,1-.75.73,11.16,11.16,0,0,1-1,.8,11.7,11.7,0,0,1-1,.68c-.38.28-.78.54-1.19.81l-.21.13-.21.14-.52.34c-.72.48-1.44,1-2.11,1.48-.35.26-.69.53-1,.81a8.14,8.14,0,0,0-.67.64,9,9,0,0,0-.71.81,6,6,0,0,0-.5.71,4.56,4.56,0,0,0-.44.81,4.75,4.75,0,0,0-.33.81,5.34,5.34,0,0,0-.21.81,4.43,4.43,0,0,0-.11.73,7.09,7.09,0,0,0,0,.81.41.41,0,0,0,.4.43.4.4,0,0,0,.4-.41,5.4,5.4,0,0,1,.06-.83,5.84,5.84,0,0,1,.11-.73,5.44,5.44,0,0,1,.25-.81,5.92,5.92,0,0,1,.37-.81,5.85,5.85,0,0,1,.52-.81,4.87,4.87,0,0,1,.58-.71A12.55,12.55,0,0,1,187,64c.34-.28.72-.55,1.1-.81s1-.66,1.47-1l.23-.15c.17-.12.36-.23.53-.34l.91-.61c.38-.26.76-.53,1.12-.81s.58-.44.85-.68a10.85,10.85,0,0,0,.86-.8,7.24,7.24,0,0,0,.65-.73,9,9,0,0,0,1-1.62,5.73,5.73,0,0,0,.33-.81,6.44,6.44,0,0,0,.2-.72c.05-.26.1-.53.13-.82a7.09,7.09,0,0,0,0-.81,6.75,6.75,0,0,0,0-.81,4,4,0,0,0-.1-.71,7,7,0,0,0-.2-.82c-.09-.28-.2-.54-.31-.8a5.63,5.63,0,0,0-.46-.83,6.33,6.33,0,0,0-.48-.71,6.86,6.86,0,0,0-.71-.81,8,8,0,0,0-.66-.64,10.71,10.71,0,0,0-1-.8c-.7-.54-1.44-1-2.19-1.54-.19-.11-.36-.23-.53-.34l-.23-.15c-.28-.17-.55-.36-.81-.54-.41-.27-.81-.54-1.19-.81s-.59-.45-.87-.68a10,10,0,0,1-.91-.8,7.53,7.53,0,0,1-.65-.73,5.56,5.56,0,0,1-.59-.81,5.37,5.37,0,0,1-.45-.81,7.1,7.1,0,0,1-.3-.81,6,6,0,0,1-.17-.73,5.28,5.28,0,0,1-.09-.81,3,3,0,0,1,0-.42,2.55,2.55,0,0,1,0-.39,4.27,4.27,0,0,1,.09-.81,3.88,3.88,0,0,1,.16-.71,4.45,4.45,0,0,1,.3-.82,5.16,5.16,0,0,1,.42-.81,8.22,8.22,0,0,1,.6-.82c.2-.25.42-.48.64-.71a10.24,10.24,0,0,1,.92-.81c.26-.23.52-.43.79-.64s.77-.54,1.17-.8.62-.42.94-.63l.23-.15c.17-.12.36-.23.53-.34.72-.48,1.44-1,2.11-1.49a10.93,10.93,0,0,0,1-.81,6.31,6.31,0,0,0,.7-.67,9,9,0,0,0,.71-.81,8.31,8.31,0,0,0,.49-.72,5.37,5.37,0,0,0,.45-.81c.11-.26.22-.53.32-.81s.15-.53.2-.82a5.06,5.06,0,0,0,.1-.71,6.85,6.85,0,0,0,0-.79A.41.41,0,0,0,196,19.1Z"/><path class="cls-3" d="M194.05,58.81h-9a9.48,9.48,0,0,0,.87.8h7.26A10.85,10.85,0,0,0,194.05,58.81Z"/><path class="cls-3" d="M195.27,57.27H183.84a6.34,6.34,0,0,0,.58.81H194.7A5.41,5.41,0,0,0,195.27,57.27Z"/><path class="cls-3" d="M196.05,55.65h-13a4.75,4.75,0,0,0,.33.81h12.33A5.73,5.73,0,0,0,196.05,55.65Z"/><path class="cls-3" d="M196.38,54.11H182.74a6.7,6.7,0,0,0,.13.82h13.38C196.3,54.67,196.35,54.4,196.38,54.11Z"/><path class="cls-3" d="M196.38,52.49H182.74a6.57,6.57,0,0,0,0,.78s13.72,0,13.72,0A6.75,6.75,0,0,0,196.38,52.49Z"/><path class="cls-3" d="M196.08,51H183a5.45,5.45,0,0,0-.2.82h13.44A7,7,0,0,0,196.08,51Z"/><path class="cls-3" d="M195.31,49.33H183.79a6.59,6.59,0,0,0-.44.83h12.42A5.63,5.63,0,0,0,195.31,49.33Z"/><path class="cls-3" d="M194.12,47.81H185a6.06,6.06,0,0,0-.71.81h10.54A6.86,6.86,0,0,0,194.12,47.81Z"/><path class="cls-3" d="M192.5,46.37h-5.88a10.71,10.71,0,0,0-1,.8h7.8A10.71,10.71,0,0,0,192.5,46.37Z"/><path class="cls-3" d="M192.34,60.29h-5.56c.36.28.74.55,1.13.81h3.31C191.6,60.84,192,60.57,192.34,60.29Z"/><path class="cls-3" d="M194.44,41.51h-9.75a7.24,7.24,0,0,0,.77.8h8.21A8.29,8.29,0,0,0,194.44,41.51Z"/><path class="cls-3" d="M195.53,40H183.59a5.85,5.85,0,0,0,.52.81H195A5.85,5.85,0,0,0,195.53,40Z"/><path class="cls-3" d="M196.18,38.35H182.94a5.5,5.5,0,0,0,.27.81h12.7A7,7,0,0,0,196.18,38.35Z"/><path class="cls-3" d="M196.4,36.81H182.72a4.28,4.28,0,0,0,.08.81h13.52A4.28,4.28,0,0,0,196.4,36.81Z"/><path class="cls-3" d="M196.33,35.19H182.79a4.28,4.28,0,0,0-.07.81H196.4A5.31,5.31,0,0,0,196.33,35.19Z"/><path class="cls-3" d="M195.92,33.66H183.2a3.94,3.94,0,0,0-.27.82h13.26A5.63,5.63,0,0,0,195.92,33.66Z"/><path class="cls-3" d="M195,32h-11a5.8,5.8,0,0,0-.5.82h12A6,6,0,0,0,195,32Z"/><path class="cls-3" d="M193.7,30.51h-8.28a8.65,8.65,0,0,0-.79.81h9.85A7.46,7.46,0,0,0,193.7,30.51Z"/><path class="cls-3" d="M191.93,29.07H187.2c-.37.25-.71.52-1,.8H193C192.64,29.59,192.3,29.33,191.93,29.07Z"/><path class="cls-3" d="M192.89,43h-6.65c.34.28.7.55,1.07.81h4.5C192.18,43.54,192.55,43.27,192.89,43Z"/><path class="cls-3" d="M196.38,69.32H182.74a7.09,7.09,0,0,0,0,.81h13.72A7.09,7.09,0,0,0,196.38,69.32Z"/><path class="cls-3" d="M196.06,67.78h-13a5.34,5.34,0,0,0-.21.81h13.42A6.86,6.86,0,0,0,196.06,67.78Z"/><path class="cls-3" d="M195.28,66.16H183.83a4.56,4.56,0,0,0-.44.81h12.33A5.31,5.31,0,0,0,195.28,66.16Z"/><path class="cls-3" d="M194.08,64.64h-9a9,9,0,0,0-.71.81h10.46C194.57,65.17,194.33,64.9,194.08,64.64Z"/><path class="cls-3" d="M192.41,63.19h-5.7c-.35.26-.69.53-1,.81h7.7C193.09,63.72,192.75,63.45,192.41,63.19Z"/><path class="cls-3" d="M194.82,24.17H184.3A7.62,7.62,0,0,0,185,25h9.1A9,9,0,0,0,194.82,24.17Z"/><path class="cls-3" d="M195.76,22.64h-12.4a6.28,6.28,0,0,0,.43.81h11.52A5.37,5.37,0,0,0,195.76,22.64Z"/><path class="cls-3" d="M196.28,21H182.84a5.17,5.17,0,0,0,.2.82h13C196.15,21.57,196.23,21.3,196.28,21Z"/><path class="cls-3" d="M196.42,19.49H182.7a7,7,0,0,0,0,.81h13.64a6.85,6.85,0,0,0,0-.79Z"/><path class="cls-3" d="M193.41,25.65h-7.7c.31.28.65.55,1,.81h5.72A10.93,10.93,0,0,0,193.41,25.65Z"/><path class="cls-3" d="M110.83,29a19.1,19.1,0,0,0-19-19H81.08a19.05,19.05,0,1,0,0,38.1h10.7a19.8,19.8,0,0,0,2.57-.19l6.2,7.15V45.85A19.08,19.08,0,0,0,110.83,29Z"/><path class="cls-2" d="M73.7,29.38a2.79,2.79,0,1,1-2.79-2.79A2.79,2.79,0,0,1,73.7,29.38Z"/><path class="cls-2" d="M83.76,29.38A2.8,2.8,0,1,1,81,26.59,2.79,2.79,0,0,1,83.76,29.38Z"/><path class="cls-2" d="M93.18,29.38a2.79,2.79,0,1,1-2.79-2.79A2.79,2.79,0,0,1,93.18,29.38Z"/><path class="cls-2" d="M103.23,29.38a2.79,2.79,0,1,1-2.79-2.79A2.79,2.79,0,0,1,103.23,29.38Z"/><path class="cls-4" d="M49.3,47.52A30.65,30.65,0,0,0,30.08,42.6l-.63,0,2.15,34L49.84,47.86Z"/><path class="cls-5" d="M30.75,43.19l0-.63-.63,0a30.38,30.38,0,0,0-9.8,2.19,32.16,32.16,0,0,0-18,41.69l.23.59,30.28-12Z"/><path class="cls-3" d="M49.3,47.52l-.53-.33L31.69,74.13,2,85.89l.23.59a30.68,30.68,0,0,0,12.66,15.28A32.11,32.11,0,1,0,49.3,47.52Z"/><path class="cls-6" d="M178.08,56.64A15.12,15.12,0,0,0,163,41.51H123a15.12,15.12,0,0,0-15.12,15.13v48h70.25Z"/><ellipse class="cls-6" cx="134.03" cy="42.48" rx="7.63" ry="9.91" transform="translate(-5.8 57.16) rotate(-23.58)"/><ellipse class="cls-6" cx="146.67" cy="36.96" rx="7.63" ry="9.91" transform="translate(-2.54 61.75) rotate(-23.58)"/><circle class="cls-7" cx="134.84" cy="65.54" r="8.13"/><circle class="cls-8" cx="134.84" cy="65.56" r="5.66"/><circle class="cls-7" cx="152.13" cy="65.54" r="8.13"/><circle class="cls-8" cx="152.13" cy="65.56" r="5.66"/><path class="cls-9" d="M143,84.7a6.33,6.33,0,0,0,6.33-6.33H136.71A6.32,6.32,0,0,0,143,84.7Z"/><circle class="cls-10" cx="107.83" cy="91.02" r="7.63"/><circle class="cls-10" cx="178.08" cy="91.02" r="7.63"/><circle class="cls-11" cx="121.34" cy="77.13" r="6.61"/><circle class="cls-11" cx="164.4" cy="77.13" r="6.61"/></g></g></svg>