<svg xmlns="http://www.w3.org/2000/svg" viewBox="0 0 253.91 116.24"><defs><style>.cls-1{fill:#193f92;}.cls-2{fill:#7699d0;}.cls-3,.cls-6{fill:#fff;}.cls-4{fill:#c39dc9;}.cls-5{fill:#bfe1e6;}.cls-6{opacity:0.28;}.cls-7{fill:#f49c63;}.cls-8{fill:#f6f6f6;}.cls-9{fill:#3c3c3b;}.cls-10{fill:#4e4140;}.cls-11{fill:#c47548;}.cls-12{fill:#f7b290;}</style></defs><g id="Laag_2" data-name="Laag 2"><g id="Laag_1-2" data-name="Laag 1"><rect class="cls-1" x="53.91" y="9.23" width="166.1" height="107.01" rx="3.16"/><path class="cls-2" d="M211.57,18.92v87.63a7.29,7.29,0,0,1-5.22,7,32.24,32.24,0,0,1-4.66.34H65.39a7.31,7.31,0,0,1-7.32-7.35V18.92a7.35,7.35,0,0,1,7.32-7.37H204.2A7.38,7.38,0,0,1,211.57,18.92Z"/><path class="cls-3" d="M79.89,83.86a.31.31,0,0,1-.25-.13L77.8,81.28l-2.42,2.23a.31.31,0,0,1-.47,0L69.7,76.09l-7.21,6.46a.32.32,0,0,1-.44,0,.31.31,0,0,1,0-.44l7.47-6.7a.33.33,0,0,1,.24-.07.29.29,0,0,1,.22.13l5.21,7.36,2.41-2.23a.31.31,0,0,1,.24-.08.35.35,0,0,1,.23.12L79.87,83l6.18-10.25a.3.3,0,0,1,.29-.15.33.33,0,0,1,.27.2l3.19,7.82,1.82-3a.3.3,0,0,1,.32-.15.32.32,0,0,1,.25.26L93,82.45l4.61-8.78a.32.32,0,1,1,.56.29l-5,9.6a.31.31,0,0,1-.33.16.32.32,0,0,1-.26-.25l-.81-4.81L90,81.46a.29.29,0,0,1-.29.15.29.29,0,0,1-.26-.19l-3.2-7.82-6.1,10.11a.32.32,0,0,1-.25.15Z"/><path class="cls-3" d="M99.65,70.47a18.7,18.7,0,0,0,.14,6.12l-2.13-2.34-3.13-.43A18.92,18.92,0,0,0,99.65,70.47Z"/><path class="cls-3" d="M183.1,28.33a.41.41,0,0,0-.4.39,7,7,0,0,0,0,.81,7.6,7.6,0,0,0,.3,1.52,5.68,5.68,0,0,0,.32.81,6.28,6.28,0,0,0,.43.81,8.72,8.72,0,0,0,.51.73,7.62,7.62,0,0,0,.71.81,8.9,8.9,0,0,0,.7.67c.31.28.65.55,1,.81.68.52,1.39,1,2.11,1.48l.53.35.21.15q.49.3,1,.63c.4.26.79.53,1.16.8s.54.41.8.63a10.17,10.17,0,0,1,.92.82,8.72,8.72,0,0,1,.64.71,6.81,6.81,0,0,1,.59.82,4.07,4.07,0,0,1,.42.8,4.77,4.77,0,0,1,.31.82,4.19,4.19,0,0,1,.16.72,4.28,4.28,0,0,1,.08.81,1.71,1.71,0,0,1,0,.39,2,2,0,0,1,0,.42,5.29,5.29,0,0,1-.08.81c0,.25-.1.49-.17.72a5.34,5.34,0,0,1-.31.82,6.35,6.35,0,0,1-.44.81A5.56,5.56,0,0,1,194,50a6.4,6.4,0,0,1-.66.72,9.87,9.87,0,0,1-.9.8c-.28.24-.57.46-.87.68s-.78.54-1.19.81-.55.37-.83.54l-.21.16c-.17.12-.35.22-.53.33-.74.5-1.49,1-2.19,1.55a10.71,10.71,0,0,0-1,.8A5.71,5.71,0,0,0,185,57a5.49,5.49,0,0,0-.71.81,6,6,0,0,0-.5.71,6.47,6.47,0,0,0-.44.82,7,7,0,0,0-.31.8,5.45,5.45,0,0,0-.2.82,4.16,4.16,0,0,0-.1.72,6.57,6.57,0,0,0,0,.78,7.28,7.28,0,0,0,0,.84,6.85,6.85,0,0,0,.13.81c0,.25.12.49.19.73a4.75,4.75,0,0,0,.33.81,4.62,4.62,0,0,0,.45.81,6.34,6.34,0,0,0,.58.81,5.49,5.49,0,0,0,.64.72,9.48,9.48,0,0,0,.87.8,9.37,9.37,0,0,0,.85.68c.36.29.74.56,1.13.82l.9.6.53.35a1.37,1.37,0,0,1,.21.15c.51.32,1,.65,1.49,1s.75.53,1.1.81a9.68,9.68,0,0,1,.77.64,10.47,10.47,0,0,1,.82.81,5.54,5.54,0,0,1,.58.72,5.85,5.85,0,0,1,.52.81,5.92,5.92,0,0,1,.37.81,4.42,4.42,0,0,1,.23.81,3.64,3.64,0,0,1,.13.72,7,7,0,0,1,.06.81.42.42,0,0,0,.4.44.41.41,0,0,0,.4-.41,7.28,7.28,0,0,0,0-.84,6,6,0,0,0-.11-.72,6.86,6.86,0,0,0-.21-.81,4.79,4.79,0,0,0-.34-.81,5.31,5.31,0,0,0-.44-.81,5.71,5.71,0,0,0-.49-.72c-.22-.28-.46-.55-.71-.81s-.43-.43-.67-.64-.66-.55-1-.81c-.67-.52-1.38-1-2.1-1.48l-.53-.33a1.42,1.42,0,0,0-.23-.14,1.07,1.07,0,0,0-.19-.13c-.41-.27-.81-.53-1.2-.82a10.88,10.88,0,0,1-.95-.68,11.16,11.16,0,0,1-1-.8,7.36,7.36,0,0,1-.76-.72,8.46,8.46,0,0,1-.67-.81,5.85,5.85,0,0,1-.52-.81,5.92,5.92,0,0,1-.37-.81,5.6,5.6,0,0,1-.21-.73,3.62,3.62,0,0,1-.15-.81,5.32,5.32,0,0,1-.06-.81,5.1,5.1,0,0,1,.05-.81,5.42,5.42,0,0,1,.11-.72,5.54,5.54,0,0,1,.24-.82,7.37,7.37,0,0,1,.86-1.62,6.56,6.56,0,0,1,.57-.71,10.47,10.47,0,0,1,.82-.81c.24-.22.49-.44.74-.64s.73-.54,1.1-.8,1-.71,1.56-1.06l.23-.14.52-.35c.51-.33,1-.67,1.51-1s.74-.53,1.08-.81.53-.44.78-.68a8.29,8.29,0,0,0,.77-.8A6.43,6.43,0,0,0,195,50a5.85,5.85,0,0,0,.52-.81,7.49,7.49,0,0,0,.38-.81,6.56,6.56,0,0,0,.27-.82,5.4,5.4,0,0,0,.14-.72,4.28,4.28,0,0,0,.08-.81,3,3,0,0,0,0-.42,2.55,2.55,0,0,0,0-.39,5.31,5.31,0,0,0-.07-.81c0-.25-.08-.49-.14-.72a6.56,6.56,0,0,0-.27-.82,5.8,5.8,0,0,0-.37-.8,6,6,0,0,0-.52-.82,5.39,5.39,0,0,0-.55-.71,6.74,6.74,0,0,0-.78-.82q-.34-.33-.72-.63c-.34-.28-.68-.54-1-.8-.52-.39-1.07-.75-1.62-1.13-.17-.11-.36-.21-.53-.33a1.42,1.42,0,0,0-.23-.14c-.5-.34-1-.66-1.48-1s-.77-.53-1.12-.81-.54-.44-.79-.67a10.47,10.47,0,0,1-.82-.81,6.63,6.63,0,0,1-.58-.73,5.7,5.7,0,0,1-.5-.81,5.87,5.87,0,0,1-.36-.81,5.41,5.41,0,0,1-.24-.81,5.27,5.27,0,0,1-.11-.71,5.08,5.08,0,0,1-.05-.79A.41.41,0,0,0,183.1,28.33Z"/><path class="cls-3" d="M196,28.33a.4.4,0,0,0-.39.39,6.77,6.77,0,0,1-.05.81,4,4,0,0,1-.12.71,5.39,5.39,0,0,1-.23.81,5.87,5.87,0,0,1-.36.81,5.7,5.7,0,0,1-.5.81,6.73,6.73,0,0,1-.59.73,8.84,8.84,0,0,1-.81.81c-.25.23-.51.45-.79.67s-.73.55-1.12.81-1,.67-1.5,1l-.21.14-.52.33c-.56.37-1.1.74-1.62,1.13-.37.25-.71.52-1,.8a8.67,8.67,0,0,0-.73.63,7.69,7.69,0,0,0-.79.82,8,8,0,0,0-.56.71,5.8,5.8,0,0,0-.5.82,4.83,4.83,0,0,0-.37.8,4.38,4.38,0,0,0-.27.82,5.4,5.4,0,0,0-.14.72,4.28,4.28,0,0,0-.07.81,2.55,2.55,0,0,0,0,.39,3,3,0,0,0,0,.42,4.28,4.28,0,0,0,.08.81,4,4,0,0,0,.14.72,5.25,5.25,0,0,0,.27.82,5,5,0,0,0,.38.81,5.85,5.85,0,0,0,.52.81,4.94,4.94,0,0,0,.58.72,7.24,7.24,0,0,0,.77.8,10,10,0,0,0,.78.68c.34.28.7.55,1.07.81s1,.7,1.5,1l.53.35.21.14c.54.34,1.07.69,1.58,1.06s.75.53,1.09.8.51.42.75.64a8.84,8.84,0,0,1,.81.81,6.64,6.64,0,0,1,.58.71,7.37,7.37,0,0,1,.86,1.62,5.51,5.51,0,0,1,.23.82,4.16,4.16,0,0,1,.12.72,6.53,6.53,0,0,1,.05.78,7.05,7.05,0,0,1-.06.84,3.62,3.62,0,0,1-.15.81,5.6,5.6,0,0,1-.21.73,5.92,5.92,0,0,1-.37.81,5.85,5.85,0,0,1-.52.81,7.3,7.3,0,0,1-.68.81,6.38,6.38,0,0,1-.75.72,11.16,11.16,0,0,1-1,.8,9.7,9.7,0,0,1-1,.68c-.38.29-.78.55-1.19.82l-.21.13-.21.14-.52.33c-.72.49-1.44,1-2.11,1.48-.35.26-.69.53-1,.81s-.46.43-.67.64a9,9,0,0,0-.71.81,7.11,7.11,0,0,0-.5.72,4.56,4.56,0,0,0-.44.81,4.75,4.75,0,0,0-.33.81,5.34,5.34,0,0,0-.21.81,4.48,4.48,0,0,0-.11.72,7.09,7.09,0,0,0,0,.81.42.42,0,0,0,.4.44.41.41,0,0,0,.4-.41,5.44,5.44,0,0,1,.06-.84,6,6,0,0,1,.11-.72,5.44,5.44,0,0,1,.25-.81,5.92,5.92,0,0,1,.37-.81,5.85,5.85,0,0,1,.52-.81,5.54,5.54,0,0,1,.58-.72,7.86,7.86,0,0,1,.82-.81,9.68,9.68,0,0,1,.77-.64c.34-.28.72-.55,1.1-.81s1-.66,1.47-1l.23-.15.53-.35.91-.6c.38-.26.76-.53,1.12-.82s.58-.44.85-.68a10.85,10.85,0,0,0,.86-.8,6.22,6.22,0,0,0,.65-.72,9,9,0,0,0,1-1.62,5.73,5.73,0,0,0,.33-.81,6.05,6.05,0,0,0,.2-.73c.05-.26.1-.53.13-.81a7.09,7.09,0,0,0,0-.81,6.75,6.75,0,0,0,0-.81,4.16,4.16,0,0,0-.1-.72,7,7,0,0,0-.2-.82c-.09-.28-.2-.54-.31-.8a5.53,5.53,0,0,0-.46-.82,4.91,4.91,0,0,0-.48-.71,6.15,6.15,0,0,0-.71-.81,6.61,6.61,0,0,0-.66-.64,10.71,10.71,0,0,0-1-.8c-.7-.54-1.44-1.05-2.19-1.55l-.53-.33-.23-.16q-.42-.26-.81-.54c-.41-.27-.81-.54-1.19-.81s-.59-.44-.87-.68a10,10,0,0,1-.91-.8,7.41,7.41,0,0,1-.65-.72,5.56,5.56,0,0,1-.59-.81,5.37,5.37,0,0,1-.45-.81,6.61,6.61,0,0,1-.3-.82,5.4,5.4,0,0,1-.17-.72,5.28,5.28,0,0,1-.09-.81,3,3,0,0,1,0-.42,2.55,2.55,0,0,1,0-.39,4.27,4.27,0,0,1,.09-.81,4.19,4.19,0,0,1,.16-.72,4.73,4.73,0,0,1,.3-.82,5.52,5.52,0,0,1,.42-.8,8.22,8.22,0,0,1,.6-.82,8.72,8.72,0,0,1,.64-.71,9,9,0,0,1,.92-.82c.26-.22.52-.43.79-.63s.77-.54,1.17-.8.62-.43.94-.63l.23-.15.53-.35c.72-.47,1.44-1,2.11-1.48.34-.26.68-.52,1-.81a7.39,7.39,0,0,0,.7-.67,9,9,0,0,0,.71-.81,8.46,8.46,0,0,0,.49-.73,5.37,5.37,0,0,0,.45-.81c.11-.26.22-.53.32-.81s.15-.53.2-.81a5.28,5.28,0,0,0,.1-.71,6.85,6.85,0,0,0,0-.79A.41.41,0,0,0,196,28.33Z"/><path class="cls-3" d="M194.05,68h-9a9.48,9.48,0,0,0,.87.8h7.26A10.85,10.85,0,0,0,194.05,68Z"/><path class="cls-3" d="M195.27,66.5H183.84a6.34,6.34,0,0,0,.58.81H194.7A5.41,5.41,0,0,0,195.27,66.5Z"/><path class="cls-3" d="M196.05,64.88h-13a4.75,4.75,0,0,0,.33.81h12.33A5.73,5.73,0,0,0,196.05,64.88Z"/><path class="cls-3" d="M196.38,63.34H182.74a6.85,6.85,0,0,0,.13.81h13.38C196.3,63.89,196.35,63.62,196.38,63.34Z"/><path class="cls-3" d="M196.38,61.72H182.74a6.57,6.57,0,0,0,0,.78s13.72,0,13.72,0A6.75,6.75,0,0,0,196.38,61.72Z"/><path class="cls-3" d="M196.08,60.18H183a5.45,5.45,0,0,0-.2.82h13.44A7,7,0,0,0,196.08,60.18Z"/><path class="cls-3" d="M195.31,58.56H183.79a6.47,6.47,0,0,0-.44.82h12.42A5.53,5.53,0,0,0,195.31,58.56Z"/><path class="cls-3" d="M194.12,57H185a5.49,5.49,0,0,0-.71.81h10.54A6.15,6.15,0,0,0,194.12,57Z"/><path class="cls-3" d="M192.5,55.6h-5.88a10.71,10.71,0,0,0-1,.8h7.8A10.71,10.71,0,0,0,192.5,55.6Z"/><path class="cls-3" d="M192.34,69.51h-5.56c.36.29.74.56,1.13.82h3.31C191.6,70.07,192,69.8,192.34,69.51Z"/><path class="cls-3" d="M194.44,50.73h-9.75a7.24,7.24,0,0,0,.77.8h8.21A8.29,8.29,0,0,0,194.44,50.73Z"/><path class="cls-3" d="M195.53,49.2H183.59a5.85,5.85,0,0,0,.52.81H195A5.85,5.85,0,0,0,195.53,49.2Z"/><path class="cls-3" d="M196.18,47.57H182.94a5.25,5.25,0,0,0,.27.82h12.7A6.56,6.56,0,0,0,196.18,47.57Z"/><path class="cls-3" d="M196.4,46H182.72a4.28,4.28,0,0,0,.08.81h13.52A4.28,4.28,0,0,0,196.4,46Z"/><path class="cls-3" d="M196.33,44.42H182.79a4.28,4.28,0,0,0-.07.81H196.4A5.31,5.31,0,0,0,196.33,44.42Z"/><path class="cls-3" d="M195.92,42.88H183.2a4.38,4.38,0,0,0-.27.82h13.26A6.56,6.56,0,0,0,195.92,42.88Z"/><path class="cls-3" d="M195,41.26h-11a5.8,5.8,0,0,0-.5.82h12A6,6,0,0,0,195,41.26Z"/><path class="cls-3" d="M193.7,39.73h-8.28a7.69,7.69,0,0,0-.79.82h9.85A6.74,6.74,0,0,0,193.7,39.73Z"/><path class="cls-3" d="M191.93,38.3H187.2c-.37.25-.71.52-1,.8H193C192.64,38.82,192.3,38.56,191.93,38.3Z"/><path class="cls-3" d="M192.89,52.21h-6.65c.34.28.7.55,1.07.81h4.5C192.18,52.76,192.55,52.49,192.89,52.21Z"/><path class="cls-3" d="M196.38,78.54H182.74a7.09,7.09,0,0,0,0,.81h13.72A7.09,7.09,0,0,0,196.38,78.54Z"/><path class="cls-3" d="M196.06,77h-13a5.34,5.34,0,0,0-.21.81h13.42A6.86,6.86,0,0,0,196.06,77Z"/><path class="cls-3" d="M195.28,75.39H183.83a4.56,4.56,0,0,0-.44.81h12.33A5.31,5.31,0,0,0,195.28,75.39Z"/><path class="cls-3" d="M194.08,73.86h-9a9,9,0,0,0-.71.81h10.46C194.57,74.39,194.33,74.12,194.08,73.86Z"/><path class="cls-3" d="M192.41,72.41h-5.7c-.35.26-.69.53-1,.81h7.7C193.09,72.94,192.75,72.67,192.41,72.41Z"/><path class="cls-3" d="M194.82,33.4H184.3a7.62,7.62,0,0,0,.71.81h9.1A9,9,0,0,0,194.82,33.4Z"/><path class="cls-3" d="M195.76,31.86h-12.4a6.28,6.28,0,0,0,.43.81h11.52A5.37,5.37,0,0,0,195.76,31.86Z"/><path class="cls-3" d="M196.28,30.24H182.84a5.33,5.33,0,0,0,.2.81h13C196.15,30.79,196.23,30.52,196.28,30.24Z"/><path class="cls-3" d="M196.42,28.72H182.7a7,7,0,0,0,0,.81h13.64a6.85,6.85,0,0,0,0-.79Z"/><path class="cls-3" d="M193.41,34.88h-7.7c.31.28.65.55,1,.81h5.72C192.76,35.43,193.1,35.17,193.41,34.88Z"/><path class="cls-3" d="M110.83,38.2a19.11,19.11,0,0,0-19-19.06H81.08a19.06,19.06,0,1,0,0,38.11h10.7a18.18,18.18,0,0,0,2.57-.2l6.2,7.15V55.08A19.1,19.1,0,0,0,110.83,38.2Z"/><path class="cls-2" d="M73.7,38.61a2.79,2.79,0,1,1-2.79-2.79A2.79,2.79,0,0,1,73.7,38.61Z"/><path class="cls-2" d="M83.76,38.61A2.8,2.8,0,1,1,81,35.82,2.79,2.79,0,0,1,83.76,38.61Z"/><path class="cls-2" d="M93.18,38.61a2.79,2.79,0,1,1-2.79-2.79A2.79,2.79,0,0,1,93.18,38.61Z"/><path class="cls-2" d="M103.23,38.61a2.79,2.79,0,1,1-2.79-2.79A2.79,2.79,0,0,1,103.23,38.61Z"/><path class="cls-4" d="M49.3,56.75a30.65,30.65,0,0,0-19.22-4.93l-.63,0,2.15,34L49.84,57.09Z"/><path class="cls-5" d="M30.75,52.41l0-.63-.63,0a30.66,30.66,0,0,0-9.8,2.2,32.15,32.15,0,0,0-18,41.68l.23.59,30.28-12Z"/><path class="cls-3" d="M49.3,56.75l-.53-.34-17.08,27L2,95.12l.23.58A30.66,30.66,0,0,0,14.92,111,32.11,32.11,0,1,0,49.3,56.75Z"/><path class="cls-6" d="M189,4.47l7.34,49.84a27,27,0,0,1-8.71-3.45l-6-40.6A25.82,25.82,0,0,1,189,4.47Z"/><path class="cls-6" d="M210.45,2.76l6.94,46.94a24.93,24.93,0,0,1-4.08,2.45,26.21,26.21,0,0,1-10.9,2.66L194.65,2.19A26.57,26.57,0,0,1,210.45,2.76Z"/><path class="cls-3" d="M201.47,56.08a27.64,27.64,0,0,1-14.53-4.15,28.07,28.07,0,0,1-6.28-42.51,27.52,27.52,0,0,1,7.72-6.06,9.87,9.87,0,0,1,1-.54,27.32,27.32,0,0,1,5-1.84,28,28,0,0,1,32.53,14.86,28,28,0,0,1-8.73,34.87,27,27,0,0,1-4.27,2.57,27.55,27.55,0,0,1-11.42,2.78C202.12,56.08,201.79,56.08,201.47,56.08Zm.12-53.58a25.18,25.18,0,0,0-6.61.89,24.47,24.47,0,0,0-4.49,1.68,7.41,7.41,0,0,0-.84.44,25.17,25.17,0,0,0-7.11,5.57,25.56,25.56,0,0,0,14,42,24.51,24.51,0,0,0,5.8.48A24.93,24.93,0,0,0,212.77,51a24.2,24.2,0,0,0,3.88-2.34A25.54,25.54,0,0,0,210,3.94,25.7,25.7,0,0,0,201.59,2.5Z"/><rect class="cls-3" x="228.72" y="40.45" width="7.33" height="69.08" rx="1.22" transform="translate(-3.1 139.6) rotate(-33.23)"/><path class="cls-7" d="M178.08,65.86A15.12,15.12,0,0,0,163,50.74H123a15.12,15.12,0,0,0-15.12,15.12v48h70.25Z"/><ellipse class="cls-7" cx="134.03" cy="51.71" rx="7.63" ry="9.91" transform="translate(-9.49 57.93) rotate(-23.58)"/><ellipse class="cls-7" cx="146.67" cy="46.19" rx="7.63" ry="9.91" transform="translate(-6.23 62.52) rotate(-23.58)"/><circle class="cls-8" cx="134.84" cy="74.77" r="8.13"/><circle class="cls-9" cx="134.84" cy="74.78" r="5.66"/><circle class="cls-8" cx="152.13" cy="74.77" r="8.13"/><circle class="cls-9" cx="152.13" cy="74.78" r="5.66"/><path class="cls-10" d="M143,93.93a6.34,6.34,0,0,0,6.33-6.33H136.71A6.33,6.33,0,0,0,143,93.93Z"/><circle class="cls-11" cx="107.83" cy="100.24" r="7.63"/><circle class="cls-11" cx="178.08" cy="100.24" r="7.63"/><circle class="cls-12" cx="121.34" cy="86.36" r="6.61"/><circle class="cls-12" cx="164.4" cy="86.36" r="6.61"/></g></g></svg>