<svg viewBox="0 0 900 400" xmlns="http://www.w3.org/2000/svg"><path d="m235 159.56c0-10.18-21.69-18.44-48.46-18.44a122.8 122.8 0 0 0 -13.71.76c-7.06-8.5-28-14.67-52.63-14.67-19 0-35.85 3.68-45.77 9.26a59.3 59.3 0 0 0 -12.88-1.35c-13.88 0-25.14 4.28-25.14 9.56a3.85 3.85 0 0 0 .09.76c-20.68 1.2-36.5 7.99-36.5 16.18 0 8.52 17.09 15.51 38.93 16.3v.08h152.4v-.1c24.52-.9 43.67-8.78 43.67-18.34z" fill="#ede1ca"/><path d="m42.66 58.84h64.11a13.42 13.42 0 0 1 13.42 13.42v78.27a19.57 19.57 0 0 1 -19.57 19.57h-51.81a19.57 19.57 0 0 1 -19.57-19.57v-78.27a13.42 13.42 0 0 1 13.42-13.42z" fill="#4f5a5c"/><g fill="#384344"><circle cx="105.51" cy="107.81" r="2.86"/><circle cx="104.48" cy="97.79" r="2.86"/><circle cx="112.34" cy="102.97" r="2.86"/><circle cx="43.92" cy="107.81" r="2.86"/><circle cx="44.95" cy="97.79" r="2.86"/><circle cx="37.09" cy="102.97" r="2.86"/></g><circle cx="64.21" cy="89.95" fill="#f6f6f6" r="10.53"/><circle cx="64.21" cy="89.96" fill="#3c3c3b" r="7.33"/><circle cx="86.6" cy="89.95" fill="#f6f6f6" r="10.53"/><circle cx="86.6" cy="89.96" fill="#3c3c3b" r="7.33"/><path d="m74.82 114.75a8.2 8.2 0 0 0 8.2-8.2h-16.4a8.2 8.2 0 0 0 8.2 8.2z" fill="#3c3c3b"/><circle cx="29.24" cy="122.93" fill="#384344" r="9.88"/><circle cx="57.35" cy="58.3" fill="#4f5a5c" r="9.88"/><circle cx="75.21" cy="58.3" fill="#4f5a5c" r="9.88"/><circle cx="92.82" cy="58.3" fill="#4f5a5c" r="9.88"/><circle cx="120.19" cy="122.93" fill="#384344" r="9.88"/><path d="m140.28 34.07h57.08a17.65 17.65 0 0 1 17.64 17.66v86.93a30.53 30.53 0 0 1 -30.53 30.53h-31.31a30.53 30.53 0 0 1 -30.53-30.53v-86.93a17.65 17.65 0 0 1 17.65-17.66z" fill="#eaa548"/><path d="m145.56 157c-7.72 0-14.08 6.35-14.95 14.53a1.73 1.73 0 0 0 1.71 1.92h26.48a1.73 1.73 0 0 0 1.71-1.92c-.87-8.2-7.23-14.53-14.95-14.53z" fill="#3c3c3b"/><path d="m187 157c-7.72 0-14.08 6.35-14.95 14.53a1.74 1.74 0 0 0 1.71 1.92h26.49a1.74 1.74 0 0 0 1.71-1.92c-.87-8.2-7.24-14.53-14.96-14.53z" fill="#3c3c3b"/><circle cx="122.62" cy="105.11" fill="#d38f3d" r="10.03"/><circle cx="215.01" cy="105.11" fill="#d38f3d" r="10.03"/><circle cx="201.76" cy="74.34" fill="#d38f3d" r="8.69"/><circle cx="137.97" cy="74.34" fill="#d38f3d" r="8.69"/><path d="m164.21 83.54 25.32-2.97" fill="none" stroke="#575756" stroke-miterlimit="10"/><path d="m189.47 75.11 1.07 9.89" fill="none" stroke="#575756" stroke-miterlimit="10"/><circle cx="157.72" cy="58.79" fill="#f6f6f6" r="11.37"/><circle cx="157.72" cy="58.81" fill="#3c3c3b" r="7.92"/><circle cx="181.91" cy="58.79" fill="#f6f6f6" r="11.37"/><circle cx="181.91" cy="58.81" fill="#3c3c3b" r="7.92"/><ellipse cx="158.77" cy="18.36" fill="#eaa548" rx="6.4" ry="20.3" transform="matrix(.893136 -.44978671 .44978671 .893136 8.71 73.37)"/><ellipse cx="175" cy="24.61" fill="#eaa548" rx="13.3" ry="6.4" transform="matrix(.44978671 -.893136 .893136 .44978671 74.3 169.84)"/><path d="m51.82 158.08c-7.6 0-13.86 6.25-14.72 14.31a1.7 1.7 0 0 0 1.68 1.88h26.08a1.7 1.7 0 0 0 1.68-1.88c-.86-8.06-7.12-14.31-14.72-14.31z" fill="#3c3c3b"/><path d="m92.62 158.08c-7.6 0-13.87 6.25-14.72 14.31a1.69 1.69 0 0 0 1.68 1.88h26.07a1.71 1.71 0 0 0 1.69-1.88c-.86-8.06-7.12-14.31-14.72-14.31z" fill="#3c3c3b"/></svg>