<svg xmlns="http://www.w3.org/2000/svg" viewBox="0 0 276.73 276.39"><defs><style>.cls-1{fill:#658bc1;fill-rule:evenodd;}</style></defs><g id="Laag_2" data-name="Laag 2"><g id="Laag_1-2" data-name="Laag 1"><path class="cls-1" d="M138.37,0C144.78,0,150,6.13,150,13.7c0,7-4.45,12.79-10.21,13.6v3.81c5.7.43,10.11,3.46,10.11,7.14s-4.55,6.81-10.38,7.16l33.88,93.1c2,5.54,6,8.89,10.68,9s8.78-3,11-8.43l25.32-62.56c-3.17-.25-5.62-1.94-5.62-4s2.48-3.76,5.66-4V66.42c-3.22-.46-5.71-3.7-5.71-7.63,0-4.23,2.91-7.68,6.5-7.68s6.5,3.45,6.5,7.68c0,3.93-2.49,7.17-5.72,7.63v2.13c3.19.24,5.67,1.94,5.67,4s-2.33,3.66-5.38,4l5.6,70.32a3.69,3.69,0,0,0,2.36,3.46,2.77,2.77,0,0,0,3.27-1.82L265,80.33c-2.89-1.59-4.74-4.2-4.24-6.11s3.28-2.52,6.36-1.39l.53-2c-2.94-1.79-4.49-5.91-3.51-9.63,1.05-4,4.66-6,8.06-4.51s5.29,6,4.24,10c-1,3.71-4.15,5.72-7.31,4.79l-.53,2c3,1.58,4.88,4.24,4.36,6.19s-3.7,2.59-7,1.11l-15.33,87.26-10.39,56H36.53L10.5,79c-3.23,1.31-6.2.78-6.73-1.25s1.4-4.6,4.36-6.18l-.54-2c-3.15.93-6.32-1.08-7.3-4.79-1-4,.84-8.5,4.24-10s7,.5,8.07,4.51a8.9,8.9,0,0,1-3.52,9.63l.53,2c3.08-1.12,5.84-.56,6.36,1.39s-1.67,5-5,6.49l32.26,69.76a2.76,2.76,0,0,0,3.26,1.82,3.69,3.69,0,0,0,2.36-3.46l5.61-70.32c-3.06-.32-5.39-2-5.39-4s2.48-3.76,5.67-4V66.42c-3.22-.46-5.72-3.7-5.72-7.63,0-4.23,2.91-7.68,6.5-7.68s6.5,3.45,6.5,7.68c0,3.93-2.49,7.17-5.72,7.63v2.13c3.2.24,5.67,1.94,5.67,4s-2.45,3.75-5.62,4l25.33,62.56c2.19,5.42,6.27,8.56,11,8.43s8.67-3.49,10.68-9l33.88-93.1c-5.83-.35-10.38-3.42-10.38-7.16s4.41-6.71,10.11-7.14V27.3c-5.76-.81-10.21-6.59-10.21-13.6C126.76,6.13,132,0,138.37,0Z"/><path class="cls-1" d="M36.53,228H240.2v29.63H36.53V228Zm192.6,6.31h0c-3.54,0-6.41,3.85-6.41,8.61s2.87,8.62,6.41,8.62,6.4-3.86,6.4-8.62-2.87-8.61-6.4-8.61Zm-30.26,0h0c-3.53,0-6.4,3.85-6.4,8.61s2.87,8.62,6.4,8.62,6.41-3.86,6.41-8.62-2.87-8.61-6.41-8.61Zm-30.25,0h0c-3.54,0-6.4,3.85-6.4,8.61s2.86,8.62,6.4,8.62,6.4-3.86,6.4-8.62-2.86-8.61-6.4-8.61Zm-30.25,0h0c-3.54,0-6.41,3.85-6.41,8.61s2.87,8.62,6.41,8.62,6.4-3.86,6.4-8.62-2.87-8.61-6.4-8.61Zm-30.26,0h0c-3.53,0-6.4,3.85-6.4,8.61s2.87,8.62,6.4,8.62,6.41-3.86,6.41-8.62-2.87-8.61-6.41-8.61Zm-30.25,0h0c-3.54,0-6.4,3.85-6.4,8.61s2.86,8.62,6.4,8.62,6.41-3.86,6.41-8.62-2.87-8.61-6.41-8.61Zm-30.25,0h0c-3.54,0-6.4,3.85-6.4,8.61s2.86,8.62,6.4,8.62,6.4-3.86,6.4-8.62S51.14,234.33,47.61,234.33Z"/><path class="cls-1" d="M30.25,261.57H246.49c3.12,0,5.67,3.34,5.67,7.41s-2.55,7.41-5.67,7.41H30.25c-3.12,0-5.68-3.33-5.68-7.41S27.13,261.57,30.25,261.57Z"/></g></g></svg>