<svg xmlns="http://www.w3.org/2000/svg" viewBox="0 0 173.21 162.34"><defs><style>.cls-1{fill:#fff;}.cls-2{fill:#c39dc9;}.cls-3{fill:#193f92;}.cls-4{fill:#7699d0;}.cls-5{fill:#f5f5f5;}.cls-6{fill:#3d3d3b;}.cls-7{fill:#f8bf2c;opacity:0.89;}.cls-8{fill:#36519f;}.cls-9{fill:#141a2f;}</style></defs><g id="Laag_2" data-name="Laag 2"><g id="Laag_1-2" data-name="Laag 1"><rect class="cls-1" x="28.33" width="87.47" height="149.89" rx="4.26"/><path class="cls-2" d="M33.42,7.09h77.31a1.74,1.74,0,0,1,1.74,1.74V141a1.72,1.72,0,0,1-1.72,1.72H33.4A1.72,1.72,0,0,1,31.68,141V8.83A1.74,1.74,0,0,1,33.42,7.09Z"/><rect class="cls-3" x="75.02" y="94.88" width="31.16" height="2.48" transform="translate(-40.96 108.02) rotate(-51.86)"/><path class="cls-1" d="M87.35,110.92a8,8,0,1,1-9.78-5.65A8,8,0,0,1,87.35,110.92Z"/><rect class="cls-3" x="103.49" y="74.3" width="32.24" height="2.48" transform="translate(-20.98 59.81) rotate(-25.89)"/><rect class="cls-3" x="116.48" y="13.84" width="2.49" height="54.4" transform="translate(3.19 90.29) rotate(-42.49)"/><path class="cls-1" d="M144.75,62.28a9.35,9.35,0,1,1-11.46-6.62A9.36,9.36,0,0,1,144.75,62.28Z"/><path class="cls-4" d="M106.62,19a7.53,7.53,0,1,1-9.22-5.33A7.53,7.53,0,0,1,106.62,19Z"/><path class="cls-4" d="M111.87,80.76a9.35,9.35,0,1,1-11.45-6.61A9.35,9.35,0,0,1,111.87,80.76Z"/><path class="cls-4" d="M46.46,122.29l4.43-.3a1.19,1.19,0,0,0,.17-2.36l-4.35-.93a1.2,1.2,0,0,1-.16-2.3l4.16-1.54a1.2,1.2,0,0,0-.51-2.32l-4.42.33a1.19,1.19,0,0,1-.81-2.14l3.56-2.66A1.2,1.2,0,0,0,47.4,106l-4.16,1.57a1.19,1.19,0,0,1-1.38-1.83l2.68-3.55a1.2,1.2,0,0,0-1.69-1.68l-3.54,2.67a1.2,1.2,0,0,1-1.84-1.38L39,97.62a1.2,1.2,0,0,0-2.09-1.13l-2.64,3.56a1.19,1.19,0,0,1-2.15-.79l.31-4.44a1.19,1.19,0,0,0-2.31-.49l-1.53,4.16a1.2,1.2,0,0,1-2.29-.16L25.39,94a1.19,1.19,0,0,0-2.36.16l-.3,4.44a1.2,1.2,0,0,1-2.26.48l-2.11-3.9a1.2,1.2,0,0,0-2.23.83l1,4.33a1.2,1.2,0,0,1-2,1.11l-3.13-3.15A1.2,1.2,0,0,0,10,99.72l2.14,3.89a1.19,1.19,0,0,1-1.62,1.62l-3.9-2.14A1.2,1.2,0,0,0,5.25,105l3.14,3.13a1.19,1.19,0,0,1-1.1,2l-4.33-1a1.2,1.2,0,0,0-.83,2.22L6,113.52a1.2,1.2,0,0,1-.49,2.26l-4.42.3A1.2,1.2,0,0,0,1,118.45l4.33.92a1.2,1.2,0,0,1,.17,2.3l-4.17,1.54a1.2,1.2,0,0,0,.51,2.32l4.42-.34A1.2,1.2,0,0,1,7,127.34L3.47,130a1.2,1.2,0,0,0,1.13,2.09l4.17-1.57a1.19,1.19,0,0,1,1.37,1.84L7.47,135.9a1.2,1.2,0,0,0,1.68,1.68l3.55-2.67a1.19,1.19,0,0,1,1.83,1.38L13,140.45a1.19,1.19,0,0,0,2.08,1.13L17.71,138a1.2,1.2,0,0,1,2.16.79l-.33,4.44a1.19,1.19,0,0,0,2.31.51l1.55-4.18a1.2,1.2,0,0,1,2.29.16l.93,4.35a1.19,1.19,0,0,0,2.36-.17l.31-4.44a1.19,1.19,0,0,1,2.24-.48l2.12,3.9a1.2,1.2,0,0,0,2.22-.83l-.95-4.34a1.19,1.19,0,0,1,2-1.1l3.13,3.15A1.21,1.21,0,0,0,42,138.35l-2.15-3.88a1.2,1.2,0,0,1,1.62-1.63l3.9,2.14a1.2,1.2,0,0,0,1.41-1.91l-3.14-3.13a1.19,1.19,0,0,1,1.1-2l4.33.95a1.2,1.2,0,0,0,.83-2.22L46,124.55A1.21,1.21,0,0,1,46.46,122.29Zm-21.29,8.39a11.67,11.67,0,1,1,12.48-10.82A11.67,11.67,0,0,1,25.17,130.68Z"/><ellipse class="cls-5" cx="74.81" cy="43.06" rx="26.39" ry="16.97"/><ellipse class="cls-6" cx="74.81" cy="43.09" rx="11.33" ry="17"/><g id="_10" data-name="10"><path class="cls-1" d="M130.63,146.42a3.25,3.25,0,0,1-2.2,3.09,27.55,27.55,0,0,1-17.64,0,3.24,3.24,0,0,1-2.2-3.09V116a2.45,2.45,0,0,1,1.59-2.3,27.86,27.86,0,0,1,18.85,0,2.44,2.44,0,0,1,1.6,2.3Z"/><path class="cls-7" d="M128.44,114.72c0,.74-4,1.35-8.83,1.35-1,0-1.93,0-2.83-.07l-1.8-.13a19,19,0,0,1-2-.28c-1.36-.24-2.19-.52-2.19-.87s.76-.63,2-.87c.57-.1,1.22-.19,2-.28s1.3-.11,2-.15c.9,0,1.83-.07,2.81-.07C124.49,113.35,128.44,114,128.44,114.72Z"/><path class="cls-8" d="M115,115.87a19,19,0,0,1-2-.28l-.15-1.74-1.91-21.3-.13-1.41,2-.17.13,1.41,1.89,21.19Z"/><path class="cls-1" d="M113.1,92.37l-2.43.22-.29-3.25a1.39,1.39,0,0,1,1.17-.84,1.41,1.41,0,0,1,1.26.62C112.91,90.21,113,91.29,113.1,92.37Z"/><path class="cls-8" d="M119.59,84.24v31.83c-1,0-1.91,0-2.81-.07V84.24a1.85,1.85,0,0,1,1.35-.67A1.92,1.92,0,0,1,119.59,84.24Z"/><path class="cls-8" d="M120.08,98.4h-3.71V81.7q.84-.06,1.77-.06c.68,0,1.33,0,1.94.06Z"/><path class="cls-9" d="M120.81,95.88c-.62,0-1-.88-1.17-1.55-.54-1.72,0-3.37.55-5s1-2.9.41-4.13a3.46,3.46,0,0,0-1.49-1.53.32.32,0,1,1,.32-.56A4.14,4.14,0,0,1,121.19,85c.68,1.47.14,3.06-.38,4.61s-1,3-.55,4.56c.31,1,.55,1.09.55,1.09s.21-.14.42-.66a.34.34,0,0,1,.42-.18.32.32,0,0,1,.18.42C121.55,95.52,121.21,95.88,120.81,95.88Z"/></g><path class="cls-1" d="M163.78,162.34c0-.33-.07-.82-.14-1.41-.46-3.9-1-8.68-3.83-11.87-.77-.87-3.18-3.28-8.29-3.88a19.88,19.88,0,0,0,13.21-14.56c-.1,1.24-.49,7.36,3.87,11.91a13.81,13.81,0,0,0,4.61,3.15,14.55,14.55,0,0,0-5.91,3.95C162.76,154.7,163.62,161.27,163.78,162.34Z"/></g></g></svg>