<svg xmlns="http://www.w3.org/2000/svg" viewBox="0 0 216.12 279.69"><defs><style>.cls-1{fill:#fff;}.cls-2{fill:#010101;}</style></defs><g id="Laag_2" data-name="Laag 2"><g id="Laag_1-2" data-name="Laag 1"><path class="cls-1" d="M203.41,114.42V101.7H190.7V89H165.27V76.28H127.13V63.57H101.7V12.71H89V0H63.57V12.71H50.85V127.13H38.14V114.42H0v38.14H12.71v12.71H25.43V190.7H38.14v25.42H50.85v25.43H63.57v38.14H190.7V241.55h12.71V203.41h12.71v-89Z"/><rect class="cls-2" x="50.85" y="12.71" width="12.71" height="152.56"/><rect class="cls-2" x="63.57" width="25.43" height="12.71"/><rect class="cls-2" x="88.99" y="12.71" width="12.71" height="114.42"/><rect class="cls-2" x="101.7" y="63.57" width="25.43" height="12.71"/><rect class="cls-2" x="127.13" y="88.99" width="12.71" height="38.14"/><rect class="cls-2" x="127.13" y="76.28" width="38.14" height="12.71"/><rect class="cls-2" x="165.27" y="101.7" width="12.71" height="38.11"/><rect class="cls-2" x="165.27" y="88.99" width="25.43" height="12.71"/><rect class="cls-2" x="190.7" y="101.7" width="12.71" height="12.71"/><rect class="cls-2" x="203.41" y="114.42" width="12.71" height="88.99"/><rect class="cls-2" x="190.7" y="203.41" width="12.71" height="38.14"/><rect class="cls-2" x="177.98" y="241.55" width="12.71" height="38.14"/><rect class="cls-2" x="63.57" y="266.97" width="114.42" height="12.71"/><rect class="cls-2" x="38.14" y="127.13" width="12.71" height="12.71"/><rect class="cls-2" y="114.42" width="38.14" height="12.71"/><rect class="cls-2" y="127.13" width="12.71" height="25.43"/><rect class="cls-2" x="12.71" y="152.56" width="12.71" height="12.71"/><rect class="cls-2" x="25.43" y="165.27" width="12.71" height="25.43"/><rect class="cls-2" x="38.14" y="190.7" width="12.71" height="25.43"/><rect class="cls-2" x="50.85" y="216.12" width="12.71" height="25.43"/><rect class="cls-2" x="63.57" y="241.55" width="12.71" height="25.43"/></g></g></svg>