<svg xmlns="http://www.w3.org/2000/svg" viewBox="0 0 1081 180"><defs><style>.cls-1{fill:#3959a5;}.cls-2{fill:#ede1ca;}</style></defs><g id="Laag_2" data-name="Laag 2"><g id="Laag_1-2" data-name="Laag 1"><path class="cls-1" d="M1081,.47V227.12H0V25S319.62,56,469.88,53.08C595.8,50.66,661,45,767.7,29c8.64-1.3,17.55-2.66,26.79-4.1,12.8-2,26.22-4.12,40.4-6.4C978.67-4.58,1081,.47,1081,.47Z"/><path class="cls-2" d="M989.84,167c-124.25,25.46-119.91,60.16-119.91,60.16h-257C661.29,135.22,998.18,156.63,936.47,95,896.14,54.71,831.77,33.82,792,24.18c10-1.33,20.31-2.73,31-4.2C947.88,41.28,1107.31,142.88,989.84,167Z"/></g></g></svg>