<svg xmlns="http://www.w3.org/2000/svg" xmlns:xlink="http://www.w3.org/1999/xlink" viewBox="0 0 166.76 127.46"><defs><style>.cls-1{fill:none;}.cls-2{fill:#f4ab43;}.cls-3{fill:#f39c2c;}.cls-4{fill:#ed6d63;}.cls-5{fill:#f18b80;}.cls-6{fill:#36a4c3;}.cls-7{fill:#55c3eb;}.cls-8{fill:#44bfe4;}.cls-9{fill:#566667;}.cls-10{fill:#d4e5e5;}.cls-11{fill:#fff;}.cls-12{clip-path:url(#clip-path);}.cls-13{fill:#f49c63;}.cls-14{fill:#f6f6f6;}.cls-15{fill:#3c3c3b;}.cls-16{fill:#4e4140;}.cls-17{fill:#266780;}.cls-18{fill:#c47548;}.cls-19{fill:#f7b290;}</style><clipPath id="clip-path"><path class="cls-1" d="M118,46.44a14.79,14.79,0,1,1,5.48-20.18A14.78,14.78,0,0,1,118,46.44Z"/></clipPath></defs><g id="Laag_2" data-name="Laag 2"><g id="Laag_1-2" data-name="Laag 1"><path class="cls-2" d="M69.58,29.19,34.3,49.4a1.7,1.7,0,0,1-2.3-.6A21.8,21.8,0,0,0,2.53,40.89a1.53,1.53,0,0,1-.92.2,1.64,1.64,0,0,1-1.38-.84h0a1.69,1.69,0,0,1,.64-2.3L35.91,17.87a25.41,25.41,0,0,1,34.28,9l0,0a1.71,1.71,0,0,1,.16,1.27A1.63,1.63,0,0,1,69.58,29.19Z"/><path class="cls-3" d="M68.68,29.71,34.3,49.4a1.7,1.7,0,0,1-2.3-.6A21.8,21.8,0,0,0,2.53,40.89a1.53,1.53,0,0,1-.92.2L35.15,21.88A25.41,25.41,0,0,1,68.68,29.71Z"/><path class="cls-4" d="M18.19,73l0,0A37.89,37.89,0,0,0,4.89,86.58a32.52,32.52,0,0,0,5-.29,39.49,39.49,0,0,0-8.25,9.76,39.41,39.41,0,0,0,12.6-2.18A33.87,33.87,0,0,0,11.45,98a37.83,37.83,0,0,0,18.39-4.58l0,0Z"/><path class="cls-5" d="M18.9,74.27a38,38,0,0,0-5.71,7.56,33.66,33.66,0,0,0,5-.3A39.8,39.8,0,0,0,10,91.29a38.82,38.82,0,0,0,12.6-2.18,34.87,34.87,0,0,0-2.79,4.18,38.19,38.19,0,0,0,9.41-1.09Z"/><path class="cls-6" d="M33.65,64.75c-5,2.27-10.25,5-15.61,8L30,93.7c5.36-3.08,10.35-6.26,14.82-9.41Z"/><path class="cls-7" d="M36.7,70.06c-4.85,2.51-10,5.33-15.4,8.4L26.77,88c5.36-3.08,10.42-6.12,15-9Z"/><path class="cls-4" d="M15.1,55.39l0,0a24.71,24.71,0,0,0-8.65,8.83,21,21,0,0,0,3.27-.19A25.73,25.73,0,0,0,4.3,70.43,26.08,26.08,0,0,0,12.53,69a21.94,21.94,0,0,0-1.83,2.73,24.71,24.71,0,0,0,12-3l0,0Z"/><path class="cls-5" d="M15.56,56.2a24.62,24.62,0,0,0-3.72,4.94A22.66,22.66,0,0,0,15.11,61a25.51,25.51,0,0,0-5.39,6.37A26,26,0,0,0,18,65.9a21,21,0,0,0-1.82,2.73,24.76,24.76,0,0,0,6.14-.72Z"/><path class="cls-6" d="M25.2,50C22,51.47,18.5,53.22,15,55.22l7.83,13.67c3.5-2,6.75-4.09,9.67-6.15Z"/><path class="cls-7" d="M27.18,53.46c-3.16,1.63-6.55,3.48-10,5.48l3.57,6.24c3.5-2,6.81-4,9.82-5.9Z"/><path class="cls-4" d="M35.89,91.7h0a24.79,24.79,0,0,0-8.65,8.84,22.66,22.66,0,0,0,3.27-.19,25.75,25.75,0,0,0-5.39,6.37,25.66,25.66,0,0,0,8.23-1.42A22.9,22.9,0,0,0,31.5,108a24.7,24.7,0,0,0,12-3h0Z"/><path class="cls-5" d="M36.35,92.51a24.74,24.74,0,0,0-3.72,4.93,21.62,21.62,0,0,0,3.27-.18,26,26,0,0,0-5.39,6.37,26,26,0,0,0,8.23-1.42,22,22,0,0,0-1.82,2.72,25,25,0,0,0,6.14-.71Z"/><path class="cls-6" d="M46,86.29c-3.25,1.48-6.69,3.24-10.2,5.24l7.83,13.67c3.5-2,6.75-4.09,9.68-6.15Z"/><path class="cls-7" d="M48,89.76c-3.17,1.64-6.56,3.48-10.06,5.48l3.57,6.24c3.5-2,6.81-4,9.82-5.9Z"/><path class="cls-6" d="M105.24,74.84,60.29,100.58l0,0a6.66,6.66,0,0,1-8.61-2.69L25.41,52a6.66,6.66,0,0,1,2-8.79l0-.06,45-25.74C110.31-4.3,154.7-.1,164.69,1.2c1.35.18,2.07.3,2.07.3S148.3,50.19,105.24,74.84Z"/><path class="cls-2" d="M94.31,72.38,59,92.59a1.7,1.7,0,0,0-.64,2.29,21.79,21.79,0,0,1-8.1,29.41,1.54,1.54,0,0,0-.64.7,1.65,1.65,0,0,0,0,1.61v0a1.69,1.69,0,0,0,2.31.61L87,107.16A25.43,25.43,0,0,0,96.65,73l0,0a1.72,1.72,0,0,0-2.32-.63Z"/><path class="cls-3" d="M93.42,72.89,59,92.59a1.7,1.7,0,0,0-.64,2.29,21.79,21.79,0,0,1-8.1,29.41,1.54,1.54,0,0,0-.64.7L83.2,105.78A25.43,25.43,0,0,0,93.42,72.89Z"/><path class="cls-8" d="M105.24,74.84,60.29,100.58l0,0a6.66,6.66,0,0,1-8.61-2.69L47.74,91C57,72,80.51,49.4,111.8,31.48L164.69,1.2c1.35.18,2.07.3,2.07.3S148.3,50.19,105.24,74.84Z"/><path class="cls-9" d="M55.39,65.27A19.22,19.22,0,1,1,81.62,72.4,19.24,19.24,0,0,1,55.39,65.27ZM83.62,49.1a13.31,13.31,0,1,0-4.93,18.17A13.31,13.31,0,0,0,83.62,49.1Z"/><path class="cls-10" d="M79.42,68.55a14.79,14.79,0,1,1,5.49-20.18A14.78,14.78,0,0,1,79.42,68.55Z"/><path class="cls-11" d="M80.61,60.79a4.89,4.89,0,1,1,1.81-6.67A4.9,4.9,0,0,1,80.61,60.79Z"/><path class="cls-9" d="M94,43.17a19.22,19.22,0,1,1,26.23,7.12A19.25,19.25,0,0,1,94,43.17ZM122.23,27a13.31,13.31,0,1,0-4.94,18.17A13.33,13.33,0,0,0,122.23,27Z"/><path class="cls-10" d="M118,46.44a14.79,14.79,0,1,1,5.48-20.18A14.77,14.77,0,0,1,118,46.44Z"/><path class="cls-11" d="M119.21,38.69A4.89,4.89,0,1,1,121,32,4.9,4.9,0,0,1,119.21,38.69Z"/><path class="cls-9" d="M94,43.17a19.22,19.22,0,1,1,26.23,7.12A19.25,19.25,0,0,1,94,43.17ZM122.23,27a13.31,13.31,0,1,0-4.94,18.17A13.33,13.33,0,0,0,122.23,27Z"/><path class="cls-10" d="M118,46.44a14.79,14.79,0,1,1,5.48-20.18A14.78,14.78,0,0,1,118,46.44Z"/><g class="cls-12"><ellipse class="cls-13" cx="103.86" cy="27.33" rx="2.65" ry="3.44" transform="translate(20.45 94.99) rotate(-53.79)"/><ellipse class="cls-13" cx="106.69" cy="23.47" rx="2.65" ry="3.44" transform="translate(24.72 95.69) rotate(-53.79)"/><rect class="cls-13" x="101.68" y="23.46" width="24.36" height="29.8" rx="7.17" transform="matrix(0.86, -0.5, 0.5, 0.86, -3.84, 62.51)"/><circle class="cls-14" cx="108.13" cy="34.1" r="2.82"/><circle class="cls-15" cx="108.13" cy="34.11" r="1.96"/><circle class="cls-14" cx="113.31" cy="31.08" r="2.82"/><circle class="cls-15" cx="113.31" cy="31.09" r="1.96"/><path class="cls-16" d="M113.93,38.41a2.19,2.19,0,0,0,.79-3l-3.79,2.21A2.19,2.19,0,0,0,113.93,38.41Z"/><path class="cls-17" d="M114.44,51.54a4.12,4.12,0,0,0-1.47,5.3.45.45,0,0,0,.64.21l6-3.51a.46.46,0,0,0,.13-.67A4.12,4.12,0,0,0,114.44,51.54Z"/><path class="cls-17" d="M123.89,46a4.12,4.12,0,0,0-1.48,5.3.45.45,0,0,0,.64.21l6-3.51a.46.46,0,0,0,.13-.67A4.11,4.11,0,0,0,123.89,46Z"/><circle class="cls-18" cx="104.48" cy="46.45" r="2.65"/><circle class="cls-18" cx="125.53" cy="34.19" r="2.65"/><circle class="cls-19" cx="106.1" cy="39.93" r="2.29"/><circle class="cls-19" cx="119.01" cy="32.42" r="2.29"/></g><path class="cls-11" d="M124.31,113.11c0-.24,0-.6-.1-1-.33-2.88-.75-6.39-2.82-8.74a9.22,9.22,0,0,0-6.1-2.85,14.77,14.77,0,0,0,5.86-3.62,15,15,0,0,0,3.87-7.1,11.55,11.55,0,0,0,2.84,8.77,10.25,10.25,0,0,0,3.39,2.32,10.65,10.65,0,0,0-4.34,2.9C123.57,107.49,124.2,112.33,124.31,113.11Z"/></g></g></svg>