<svg viewBox="0 0 230 98.04" xmlns="http://www.w3.org/2000/svg"><circle cx="38.8" cy="39.29" fill="#ea5835" r="39.29"/><g fill="#3959a5"><path d="m11.89 47.39h5.18v5.43h-1.78l-7 22.57h-6.16zm-3.06 16.82h13.06l1.43 4.39h-15.93zm6.57-11.39v-5.43h3.4l9.76 28h-6.17z"/><path d="m32.51 47.39h5.86v28h-5.86z"/><path d="m44.1 47.39h11.57a12.48 12.48 0 0 1 5.39 1.07 7.91 7.91 0 0 1 3.43 3.08 9.18 9.18 0 0 1 1.19 4.81 9 9 0 0 1 -1.36 4.92 7.63 7.63 0 0 1 -3.7 3.06l5.9 11h-6.66l-5.2-10.13h-4.66v10.19h-5.9zm10.9 13.41a4.75 4.75 0 0 0 3.41-1.17 4.19 4.19 0 0 0 1.25-3.22 4.14 4.14 0 0 0 -1.29-3.2 4.9 4.9 0 0 0 -3.37-1.21h-5v8.8z"/><path d="m70.62 47.39h5.86v28h-5.86zm2.93 23.61h8a6.16 6.16 0 0 0 3.84-1 3.57 3.57 0 0 0 1.34-3 3.49 3.49 0 0 0 -2.41-3.54 8 8 0 0 0 -2.93-.46h-7.84v-4h7.14a5.81 5.81 0 0 0 3.63-1 3.21 3.21 0 0 0 1.28-2.72 3.08 3.08 0 0 0 -1.13-2.57 5 5 0 0 0 -3.18-.91h-7.74v-4.41h9.26a11.15 11.15 0 0 1 4.56.85 6.74 6.74 0 0 1 3 2.42 6.57 6.57 0 0 1 1 3.71 6 6 0 0 1 -.7 2.84 6.25 6.25 0 0 1 -4.67 3.26v.11a7.76 7.76 0 0 1 3.48 1.05 6.7 6.7 0 0 1 2.36 2.37 6.4 6.4 0 0 1 .87 3.32 7.31 7.31 0 0 1 -4.52 7 12.33 12.33 0 0 1 -5.17 1h-9.47z"/><path d="m97.12 47.39h5.88v23.17h12.25v4.83h-18.13z"/><path d="m124.05 74.12a11.82 11.82 0 0 1 -4.68-5 16.8 16.8 0 0 1 -1.65-7.71 16.66 16.66 0 0 1 1.66-7.7 11.87 11.87 0 0 1 4.69-5 15.49 15.49 0 0 1 14.36 0 12 12 0 0 1 4.67 5 16.71 16.71 0 0 1 1.65 7.69 16.76 16.76 0 0 1 -1.65 7.7 11.83 11.83 0 0 1 -4.66 5 14 14 0 0 1 -7.2 1.77 14.16 14.16 0 0 1 -7.19-1.75zm11.2-4.38a7.59 7.59 0 0 0 2.59-3.31 12.72 12.72 0 0 0 .92-5 12.61 12.61 0 0 0 -.93-5 7.36 7.36 0 0 0 -2.61-3.43 7.41 7.41 0 0 0 -8 0 7.31 7.31 0 0 0 -2.62 3.28 12.51 12.51 0 0 0 -.93 5 12.61 12.61 0 0 0 .93 5.05 7.47 7.47 0 0 0 2.61 3.3 7.45 7.45 0 0 0 8 0z"/><path d="m155 74.13a11.66 11.66 0 0 1 -4.63-5 17 17 0 0 1 -1.63-7.76 17 17 0 0 1 1.63-7.75 11.66 11.66 0 0 1 4.63-5 13.88 13.88 0 0 1 7.09-1.74 13.46 13.46 0 0 1 6.06 1.32 11.2 11.2 0 0 1 4.27 3.63 10.8 10.8 0 0 1 1.88 5.28v.19h-5.73l-.07-.33a6.79 6.79 0 0 0 -1.19-2.69 5.83 5.83 0 0 0 -2.17-1.79 6.9 6.9 0 0 0 -3.07-.64 6.63 6.63 0 0 0 -3.9 1.16 7.41 7.41 0 0 0 -2.55 3.27 12.82 12.82 0 0 0 -.9 5 13.14 13.14 0 0 0 .9 5.1 7.34 7.34 0 0 0 2.56 3.3 6.64 6.64 0 0 0 3.89 1.15 7 7 0 0 0 3-.62 5.76 5.76 0 0 0 2.21-1.8 7 7 0 0 0 1.26-2.84v-.19h5.73v.21a10.71 10.71 0 0 1 -1.88 5.41 11.12 11.12 0 0 1 -4.28 3.62 13.59 13.59 0 0 1 -6.06 1.31 13.78 13.78 0 0 1 -7.05-1.8z"/><path d="m179 47.39h5.86v28h-5.86zm5.63 12.81h.37l10.27-12.81h6.52l-10.31 12.67h-1.14l-5.73 7.07zm1.88 1.94 4.23-3.86 11.77 17.11h-7z"/><path d="m210.26 74.9a8.93 8.93 0 0 1 -3.9-2.82 7.73 7.73 0 0 1 -1.58-4.41v-.31h5.53v.21a3.44 3.44 0 0 0 1 1.87 5.27 5.27 0 0 0 2.05 1.23 8.71 8.71 0 0 0 2.85.43 8.14 8.14 0 0 0 2.81-.43 4.12 4.12 0 0 0 1.81-1.24 2.93 2.93 0 0 0 .64-1.88 2.6 2.6 0 0 0 -1.11-2.22 10.05 10.05 0 0 0 -3.72-1.33l-2.95-.6a12.41 12.41 0 0 1 -6.24-2.8 6.81 6.81 0 0 1 -2.11-5.16 7.54 7.54 0 0 1 1.4-4.46 9.07 9.07 0 0 1 3.79-3 13.47 13.47 0 0 1 5.47-1.08 14 14 0 0 1 5.6 1 8.65 8.65 0 0 1 3.68 2.85 8 8 0 0 1 1.45 4.3v.35h-5.53v-.23a3.4 3.4 0 0 0 -.82-1.88 4.58 4.58 0 0 0 -1.8-1.21 7.19 7.19 0 0 0 -2.56-.42 7.12 7.12 0 0 0 -2.58.42 3.71 3.71 0 0 0 -1.66 1.2 2.85 2.85 0 0 0 -.58 1.75 2.52 2.52 0 0 0 1.13 2.15 9.52 9.52 0 0 0 3.53 1.29l3 .6a13.18 13.18 0 0 1 6.46 2.77 6.73 6.73 0 0 1 2 5.19 8 8 0 0 1 -1.32 4.72 8.63 8.63 0 0 1 -3.88 3 15.41 15.41 0 0 1 -6.06 1.08 15.76 15.76 0 0 1 -5.8-.93z"/><path d="m3.41 80.79h1.3v12.56h6.87v1.18h-8.17z"/><path d="m15.17 94.25a3 3 0 0 1 -1.17-1.25 4.38 4.38 0 0 1 -.42-2v-6.38h1.22v6.13a3 3 0 0 0 .68 2.11 2.49 2.49 0 0 0 1.92.72 2.89 2.89 0 0 0 1.52-.39 2.7 2.7 0 0 0 1-1.08 3.51 3.51 0 0 0 .36-1.62v-5.87h1.25v9.91h-1.24v-1.7a3.16 3.16 0 0 1 -1.18 1.34 3.69 3.69 0 0 1 -2 .53 3.67 3.67 0 0 1 -1.94-.45z"/><path d="m25.86 94.07a4.13 4.13 0 0 1 -1.57-1.78 6.24 6.24 0 0 1 -.55-2.73 6 6 0 0 1 .56-2.71 4.13 4.13 0 0 1 1.57-1.78 4.75 4.75 0 0 1 4.38-.18 4 4 0 0 1 1.38 1.17 3.72 3.72 0 0 1 .65 1.58v.09h-1.22v-.09a2.7 2.7 0 0 0 -.93-1.47 2.86 2.86 0 0 0 -1.89-.6 2.89 2.89 0 0 0 -1.68.49 3.19 3.19 0 0 0 -1.12 1.39 5.31 5.31 0 0 0 -.4 2.12 5.36 5.36 0 0 0 .4 2.15 3.21 3.21 0 0 0 1.13 1.37 3 3 0 0 0 1.69.48 2.89 2.89 0 0 0 1.82-.57 2.69 2.69 0 0 0 1-1.5v-.09h1.22v.08a3.78 3.78 0 0 1 -.69 1.65 3.86 3.86 0 0 1 -1.41 1.14 4.72 4.72 0 0 1 -4.32-.22z"/><path d="m34.48 80.79h1.26v5.64a3.14 3.14 0 0 1 1.26-1.43 3.67 3.67 0 0 1 2-.54 3.58 3.58 0 0 1 1.88.49 3.25 3.25 0 0 1 1.25 1.39 4.61 4.61 0 0 1 .44 2.1v6.1h-1.24v-5.9a3.25 3.25 0 0 0 -.73-2.26 2.57 2.57 0 0 0 -2-.8 2.75 2.75 0 0 0 -1.49.4 2.69 2.69 0 0 0 -1 1.1 3.58 3.58 0 0 0 -.35 1.62v5.84h-1.28z"/><path d="m46.35 94.1a2.59 2.59 0 0 1 -.6-1.9v-6.52h-1.46v-1.06h1.46v-2.62h1.25v2.67h2v1.06h-2v6.5a1.55 1.55 0 0 0 .35 1.15 1.5 1.5 0 0 0 1 .32h.31.25v1a2.39 2.39 0 0 1 -.36.05 3.4 3.4 0 0 1 -.45 0 2.49 2.49 0 0 1 -1.75-.65z"/><path d="m51.42 82.59a.85.85 0 1 1 .59.24.81.81 0 0 1 -.59-.24zm0 2h1.25v9.91h-1.29z"/><path d="m57.5 97.7a3.7 3.7 0 0 1 -1.4-.91 2.74 2.74 0 0 1 -.71-1.27v-.08h1.27v.08a2.08 2.08 0 0 0 1 1 4 4 0 0 0 1.87.4 3.08 3.08 0 0 0 2.21-.75 2.61 2.61 0 0 0 .8-2v-1.76a3.31 3.31 0 0 1 -.75 1.16 3.55 3.55 0 0 1 -1.15.78 3.74 3.74 0 0 1 -1.47.29 3.86 3.86 0 0 1 -2.23-.64 4.2 4.2 0 0 1 -1.48-1.78 6.46 6.46 0 0 1 -.53-2.69 6.19 6.19 0 0 1 .54-2.68 4.25 4.25 0 0 1 1.53-1.77 3.84 3.84 0 0 1 2.2-.64 3.5 3.5 0 0 1 1.46.3 3.68 3.68 0 0 1 1.14.82 3.78 3.78 0 0 1 .75 1.17v-2.11h1.25v9.66a3.75 3.75 0 0 1 -.52 2 3.45 3.45 0 0 1 -1.46 1.31 5.14 5.14 0 0 1 -2.27.47 5.52 5.52 0 0 1 -2.05-.36zm3.5-4.7a3.34 3.34 0 0 0 1.12-1.4 5 5 0 0 0 .4-2.08 5 5 0 0 0 -.4-2.08 3.25 3.25 0 0 0 -1.12-1.38 2.79 2.79 0 0 0 -1.64-.49 2.86 2.86 0 0 0 -1.67.49 3.12 3.12 0 0 0 -1.1 1.38 5.16 5.16 0 0 0 -.39 2.09 5.25 5.25 0 0 0 .39 2.1 3.21 3.21 0 0 0 1.12 1.37 2.93 2.93 0 0 0 1.67.49 2.79 2.79 0 0 0 1.62-.49z"/><path d="m66.82 94.39a.88.88 0 0 1 0-1.25.88.88 0 0 1 1.25 1.25.88.88 0 0 1 -1.25 0z"/></g></svg>