<svg xmlns="http://www.w3.org/2000/svg" viewBox="0 0 433.53 343.08"><defs><style>.cls-1{fill:#c39a77;}.cls-2{fill:#202b2d;}.cls-3{fill:#3a484c;}</style></defs><g id="Laag_2" data-name="Laag 2"><g id="Laag_1-2" data-name="Laag 1"><path class="cls-1" d="M0,298.54l73.29,2,20.89-23.49s52-6.32,55.71-6.32,52-37.95,52-37.95l38.47-22.37V185.93l58.27-6.88,34.45,9,68.53-19,31.88,71.15-113.6,73.87S76.23,388.67,0,298.54Z"/><polygon class="cls-2" points="433.53 121.57 433.53 321.56 38.29 326.83 77.09 299.29 146.8 289.95 198.9 269.83 233.4 228.87 233.4 228.87 312.8 211.38 326.82 157.49 382.51 125.4 433.53 121.57"/><polygon class="cls-3" points="327.37 157.13 367.65 134.05 428.94 189.09 386.45 182.55 359.58 209.96 367 175.59 327.37 157.13"/><polygon class="cls-3" points="405.56 235.08 299.26 230.62 264.31 247.52 254.94 259.03 233.68 227.1 233.69 227.09 313.31 209.96 405.56 235.08"/><polygon class="cls-2" points="292.77 231.23 249.75 231.23 250.95 225.11 258.48 227.35 251.57 221.93 252.22 218.62 261.39 223.59 252.88 215.28 256.41 197.27 264.67 202.24 256.96 194.48 261.87 169.46 269.4 174.09 262.57 165.86 264.55 155.77 269.4 155.77 265.13 152.81 265.13 152.8 266.56 145.52 273.16 148.5 267.06 142.99 271.26 121.57 279.47 163.43 273.16 167.12 280.44 168.36 281.16 172.01 277.04 171.66 281.74 175 284.16 187.3 276.56 191.63 285.29 193.08 287.57 204.72 277.04 209.88 288.13 207.58 288.54 209.64 280.38 216.06 288.95 211.75 289.69 215.53 278.62 221.65 291.23 223.37 292.77 231.23"/><rect class="cls-2" x="268.17" y="231.23" width="5.22" height="21.52"/><polygon class="cls-2" points="415.58 109.66 372.56 109.66 373.76 103.55 381.29 105.78 374.38 100.36 375.03 97.05 384.2 102.02 375.69 93.71 379.22 75.7 387.48 80.67 379.76 72.91 384.68 47.89 392.21 52.52 385.38 44.29 387.36 34.21 392.21 34.21 387.94 31.24 387.94 31.24 389.37 23.95 395.97 26.93 389.87 21.43 394.07 0 402.28 41.86 395.97 45.56 403.25 46.8 403.96 50.45 399.85 50.1 404.55 53.43 406.96 65.74 399.37 70.07 408.1 71.51 410.38 83.15 399.85 88.31 410.94 86.01 411.35 88.08 403.19 94.5 411.76 90.18 412.5 93.96 401.43 100.08 414.04 101.81 415.58 109.66"/><rect class="cls-2" x="390.98" y="109.66" width="5.22" height="21.52"/></g></g></svg>