<svg xmlns="http://www.w3.org/2000/svg" viewBox="0 0 737.82 274.14"><defs><style>.cls-1{fill:#c39a77;}.cls-2{fill:#202b2d;}.cls-3{fill:#3a484c;}</style></defs><g id="Laag_2" data-name="Laag 2"><g id="Laag_1-2" data-name="Laag 1"><polygon class="cls-1" points="0.12 122.02 46.29 118.63 98.33 144.83 182.25 111.85 239.06 111.85 342.04 137.6 484.6 145.62 542.13 183.23 604.79 183.23 632.28 217.57 737.82 252.13 737.82 270.42 0.12 270.42 0.12 122.02"/><polygon class="cls-2" points="379.26 267.74 0 267.74 0 241.93 56.46 193.02 78.63 176.1 141.39 170.74 138.76 157.58 169.81 149.31 191.98 146.49 190.34 131.45 297.94 126.75 297.96 126.78 325.05 162 357.08 169.05 373.2 240.75 379.26 267.74"/><polygon class="cls-3" points="373.2 240.75 315.07 239.09 272.15 184.46 280.04 172.43 295.81 165.1 273.14 128.11 297.96 126.78 325.05 162 357.08 169.05 373.2 240.75"/><path class="cls-3" d="M135.14,263.69l20.05-43.51,34.49-9,27.93,9,2.63-22.93,21-10.91s55.85-.56,57.17,0,27.26,87.8,27.26,87.8Z"/><polygon class="cls-2" points="189.04 131.34 137.51 131.34 138.95 124.01 147.98 126.69 139.7 120.19 140.48 116.23 151.46 122.18 141.26 112.23 145.49 90.67 155.39 96.61 146.15 87.32 152.03 57.35 161.05 62.91 152.87 53.05 155.24 40.97 161.05 40.97 155.94 37.41 155.94 37.41 157.65 28.69 165.56 32.25 158.25 25.66 163.28 0 173.11 50.14 165.56 54.56 174.27 56.05 175.13 60.42 170.21 60 175.83 63.99 178.72 78.73 169.62 83.91 180.08 85.65 182.81 99.59 170.21 105.77 183.49 103.01 183.97 105.48 174.2 113.18 184.47 108.01 185.35 112.53 172.09 119.86 187.2 121.93 189.04 131.34"/><rect class="cls-2" x="159.57" y="131.34" width="6.25" height="25.77"/><polygon class="cls-2" points="107.9 196.45 45.94 196.45 47.67 187.65 58.52 190.86 48.57 183.06 49.51 178.29 62.71 185.44 50.45 173.48 55.54 147.55 67.43 154.7 56.32 143.53 63.39 107.49 74.24 114.17 64.41 102.31 67.26 87.79 74.24 87.79 68.1 83.51 68.1 83.51 70.16 73.02 79.66 77.31 70.87 69.38 76.92 38.53 88.75 98.82 79.66 104.14 90.14 105.92 91.17 111.18 85.25 110.67 92.02 115.47 95.49 133.2 84.55 139.43 97.12 141.51 100.41 158.28 85.25 165.71 101.22 162.39 101.8 165.37 90.05 174.62 102.4 168.4 103.47 173.84 87.52 182.65 105.68 185.14 107.9 196.45"/><rect class="cls-2" x="72.47" y="196.45" width="7.51" height="30.99"/></g></g></svg>