<svg xmlns="http://www.w3.org/2000/svg" viewBox="0 0 1081.12 675"><defs><style>.cls-1{fill:#efbc98;}.cls-2{fill:#c39a77;}.cls-3{fill:#202b2d;}.cls-4{fill:#3a484c;}.cls-5{fill:#3959a5;}.cls-6{fill:#ede1ca;}.cls-7{fill:#f8f1e7;}</style></defs><g id="Laag_2" data-name="Laag 2"><g id="Laag_1-2" data-name="Laag 1"><rect class="cls-1" width="1080" height="675"/><path class="cls-2" d="M646.47,466.93l73.29,2,20.89-23.49s52-6.32,55.7-6.32,52-37.95,52-37.95l38.48-22.36V354.32l58.27-6.88,34.45,9,68.53-19L1080,408.65,966.39,482.52S722.69,557.06,646.47,466.93Z"/><polygon class="cls-2" points="0.12 355.37 46.29 351.98 98.33 378.18 182.25 345.2 239.06 345.2 342.04 370.95 484.6 378.96 542.13 416.58 604.79 416.58 632.28 450.91 737.82 485.47 737.82 503.77 0.12 503.77 0.12 355.37"/><polygon class="cls-3" points="379.26 501.09 0 501.09 0 475.28 56.46 426.37 78.63 409.44 141.39 404.09 138.76 390.93 169.81 382.66 191.98 379.84 190.34 364.8 297.94 360.1 297.96 360.12 325.05 395.35 357.08 402.4 373.2 474.1 379.26 501.09"/><polygon class="cls-4" points="373.2 474.1 315.07 472.44 272.15 417.81 280.04 405.78 295.81 398.45 273.14 361.46 297.96 360.12 325.05 395.35 357.08 402.4 373.2 474.1"/><path class="cls-4" d="M135.14,497l20.05-43.51,34.49-9,27.93,9,2.63-22.94,21-10.9s55.85-.56,57.17,0,27.26,87.8,27.26,87.8Z"/><polygon class="cls-3" points="189.04 364.68 137.51 364.68 138.95 357.36 147.98 360.03 139.7 353.54 140.48 349.58 151.46 355.53 141.26 345.58 145.49 324.01 155.39 329.96 146.15 320.67 152.03 290.7 161.05 296.25 152.87 286.39 155.24 274.32 161.05 274.32 155.94 270.76 155.94 270.76 157.65 262.04 165.56 265.6 158.25 259.01 163.28 233.35 173.11 283.49 165.56 287.91 174.27 289.39 175.13 293.77 170.21 293.35 175.83 297.34 178.72 312.08 169.62 317.26 180.08 318.99 182.81 332.94 170.21 339.11 183.49 336.36 183.97 338.83 174.2 346.52 184.47 341.36 185.35 345.88 172.09 353.21 187.2 355.28 189.04 364.68"/><rect class="cls-3" x="159.57" y="364.68" width="6.25" height="25.77"/><polygon class="cls-3" points="107.9 429.8 45.94 429.8 47.67 420.99 58.52 424.21 48.57 416.4 49.51 411.64 62.71 418.79 50.45 406.83 55.54 380.89 67.43 388.05 56.32 376.88 63.39 340.84 74.24 347.52 64.41 335.66 67.26 321.14 74.24 321.14 68.1 316.86 68.1 316.86 70.16 306.37 79.66 310.66 70.87 302.73 76.92 271.88 88.75 332.16 79.66 337.48 90.14 339.27 91.17 344.53 85.25 344.02 92.02 348.82 95.49 366.54 84.55 372.78 97.12 374.86 100.41 391.62 85.25 399.05 101.22 395.74 101.8 398.71 90.05 407.96 102.4 401.75 103.47 407.19 87.52 416 105.68 418.49 107.9 429.8"/><rect class="cls-3" x="72.47" y="429.8" width="7.51" height="30.99"/><polygon class="cls-3" points="1080 289.96 1080 489.95 684.75 495.22 723.56 467.68 793.27 458.34 845.37 438.22 879.86 397.26 879.87 397.26 959.27 379.78 973.28 325.89 1028.98 293.79 1080 289.96"/><polygon class="cls-4" points="973.83 325.52 1014.12 302.44 1075.41 357.48 1032.91 350.94 1006.04 378.35 1013.47 343.98 973.83 325.52"/><polygon class="cls-4" points="1052.02 403.47 945.73 399.01 910.77 415.92 901.4 427.42 880.14 395.49 880.15 395.49 959.78 378.35 1052.02 403.47"/><path class="cls-5" d="M1081.12,448V674.67H.12V472.52s319.61,31,469.87,28.11c125.93-2.42,191.16-8.08,297.83-24.1,8.64-1.29,17.55-2.66,26.79-4.1,12.8-2,26.22-4.12,40.4-6.39C978.79,443,1081.12,448,1081.12,448Z"/><path class="cls-6" d="M990,614.51C865.71,640,870,674.67,870,674.67h-257c48.36-91.9,385.25-70.49,323.54-132.13-40.33-40.28-104.7-61.17-144.46-70.81,10-1.33,20.31-2.73,31-4.2C948,488.84,1107.43,590.43,990,614.51Z"/><path class="cls-4" d="M1081.12,616s-11.41-62.2-40-67.85,29.72,96,29.72,96-18.37-18.38-33-19.46,21.62,27,21.62,27S994,623.52,971.88,637s64.86,37.64,64.86,37.64h44.38Z"/><path class="cls-4" d="M1056,656.23a153.21,153.21,0,0,0-67.85-33.58c-2.72-.58-1.57-4.75,1.15-4.17a156.86,156.86,0,0,1,56,24.09,160.28,160.28,0,0,1,13.73,10.6c2.12,1.82-1,4.87-3,3.06Z"/><path class="cls-4" d="M911.35,632.81a187.87,187.87,0,0,0,54.18,41.44h4.91a184.72,184.72,0,0,1-57.56-43C911.94,630.24,910.42,631.78,911.35,632.81Z"/><path class="cls-4" d="M940.18,658.08s-9.47,18.21-34.23,0C906,658.08,920.37,641.32,940.18,658.08Z"/><path class="cls-4" d="M922.69,643.71s7.07-19.27-23.07-25.29C899.62,618.42,897,640.37,922.69,643.71Z"/><path class="cls-4" d="M954.57,666.38s13-15.84-13.39-31.5C941.18,634.88,931.39,654.7,954.57,666.38Z"/><path class="cls-4" d="M1081.12,541.62s-55.14-22.41-49.73-40.25,45.23,20,45.23,20-23.43-29.55-14.7-40c12-14.33,19.2,24.66,19.2,24.66Z"/><path class="cls-4" d="M.12,616s11.41-62.2,40.05-67.85-29.72,96-29.72,96,18.37-18.38,33-19.46-21.62,27-21.62,27,65.39-28.1,87.55-14.59S44.5,674.67,44.5,674.67H.12Z"/><path class="cls-4" d="M25.27,656.23a153.21,153.21,0,0,1,67.85-33.58c2.72-.58,1.57-4.75-1.15-4.17a156.86,156.86,0,0,0-56,24.09,162,162,0,0,0-13.74,10.6c-2.11,1.82,1,4.87,3.06,3.06Z"/><path class="cls-4" d="M41.56,499.06A187.87,187.87,0,0,0,.12,553.24v4.9a185.6,185.6,0,0,1,28.1-42.52,183.39,183.39,0,0,1,14.87-15C44.12,499.65,42.59,498.13,41.56,499.06Z"/><path class="cls-4" d="M16.28,527.89s-18.2-9.47,0-34.23C16.28,493.66,33.05,508.07,16.28,527.89Z"/><path class="cls-4" d="M30.66,510.4s19.26,7.07,25.28-23.07C55.94,487.33,34,484.66,30.66,510.4Z"/><path class="cls-4" d="M8,542.28s15.84,13.05,31.5-13.39C39.48,528.89,19.66,519.1,8,542.28Z"/><path class="cls-4" d="M183.44,674.67c3.41-16.39,8.73-50.34-4.5-55.12-17.53-6.34-11.06,48.19-11.06,48.19s-9.66-36.45-23.23-35.7c-17.22,1,10.9,37.06,15.35,42.63Z"/><path class="cls-7" d="M656,203.31c-7.33,1.36-8.82,2.85-10.18,10.18a.26.26,0,0,1-.51,0c-1.36-7.33-2.85-8.82-10.18-10.18a.26.26,0,0,1,0-.51c7.33-1.36,8.82-2.85,10.18-10.18a.26.26,0,0,1,.51,0c1.36,7.33,2.85,8.82,10.18,10.18A.26.26,0,0,1,656,203.31Z"/><path class="cls-7" d="M304.7,55.62c-7.32,1.37-8.81,2.86-10.18,10.18a.26.26,0,0,1-.51,0c-1.36-7.32-2.85-8.81-10.18-10.18a.26.26,0,0,1,0-.51c7.33-1.36,8.82-2.85,10.18-10.18a.26.26,0,0,1,.51,0c1.37,7.33,2.86,8.82,10.18,10.18A.26.26,0,0,1,304.7,55.62Z"/><path class="cls-7" d="M56.76,253.34c-7.33,1.36-8.82,2.85-10.18,10.18a.27.27,0,0,1-.52,0c-1.36-7.33-2.85-8.82-10.18-10.18a.26.26,0,0,1,0-.51c7.33-1.37,8.82-2.86,10.18-10.19a.27.27,0,0,1,.52,0c1.36,7.33,2.85,8.82,10.18,10.19A.26.26,0,0,1,56.76,253.34Z"/><path class="cls-7" d="M866.43,308.08c-7.33,1.36-8.82,2.85-10.18,10.18a.26.26,0,0,1-.51,0c-1.36-7.33-2.85-8.82-10.18-10.18a.26.26,0,0,1,0-.51c7.33-1.37,8.82-2.86,10.18-10.18a.26.26,0,0,1,.51,0c1.36,7.32,2.85,8.81,10.18,10.18A.26.26,0,0,1,866.43,308.08Z"/><polygon class="cls-3" points="939.24 399.62 896.22 399.62 897.41 393.51 904.95 395.74 898.04 390.32 898.69 387.01 907.86 391.98 899.34 383.67 902.88 365.66 911.14 370.63 903.42 362.87 908.33 337.85 915.87 342.48 909.04 334.25 911.02 324.17 915.87 324.17 911.6 321.2 911.6 321.2 913.03 313.91 919.63 316.89 913.52 311.38 917.73 289.96 925.94 331.82 919.63 335.52 926.91 336.75 927.62 340.41 923.51 340.06 928.21 343.39 930.62 355.7 923.02 360.02 931.75 361.47 934.04 373.11 923.51 378.27 934.6 375.97 935 378.04 926.85 384.46 935.42 380.14 936.16 383.92 925.09 390.04 937.7 391.77 939.24 399.62"/><rect class="cls-3" x="914.63" y="399.62" width="5.22" height="21.52"/><polygon class="cls-3" points="1062.05 278.05 1019.02 278.05 1020.22 271.94 1027.76 274.17 1020.85 268.75 1021.5 265.44 1030.67 270.41 1022.15 262.1 1025.68 244.09 1033.94 249.06 1026.23 241.31 1031.14 216.28 1038.67 220.92 1031.85 212.68 1033.82 202.6 1038.67 202.6 1034.41 199.63 1034.41 199.63 1035.84 192.34 1042.43 195.32 1036.33 189.82 1040.53 168.39 1048.75 210.26 1042.43 213.95 1049.71 215.19 1050.43 218.84 1046.32 218.49 1051.02 221.82 1053.43 234.13 1045.83 238.46 1054.56 239.9 1056.85 251.54 1046.32 256.7 1057.41 254.4 1057.81 256.47 1049.65 262.89 1058.22 258.58 1058.97 262.35 1047.89 268.47 1060.51 270.2 1062.05 278.05"/><rect class="cls-3" x="1037.44" y="278.05" width="5.22" height="21.52"/><path class="cls-6" d="M724.87,109.29c5.7,0,12.85-.09,20.56-.05a35.59,35.59,0,0,1-2.16-12.15c0-28.93,35.76-52.37,79.87-52.37,42.91,0,77.9,22.18,79.78,50,25.86,4.4,44.94,19.81,44.94,38.14,0,21.77-26.9,39.33-60.1,39.41-46.43.12-82.23-.06-109.32-.52-15.4.34-33.15.52-53.57.52-26.53,0-48-14.1-48-31.5S698.34,109.29,724.87,109.29Z"/><path class="cls-6" d="M397.29,267.48c3.65,0,8.22-.06,13.16,0a22.62,22.62,0,0,1-1.39-7.78c0-18.51,22.88-33.52,51.11-33.52,27.47,0,49.87,14.2,51.07,32C527.78,261,540,270.85,540,282.58c0,13.93-17.22,25.17-38.46,25.22-29.72.08-52.63,0-70-.33-9.85.22-21.22.33-34.28.33-17,0-30.75-9-30.75-20.16S380.31,267.48,397.29,267.48Z"/><path class="cls-6" d="M115.89,136.75c5.11,0,11.51-.08,18.42,0A31.14,31.14,0,0,1,132.37,126c0-25.54,32-46.24,71.56-46.24,38.45,0,69.81,19.59,71.49,44.16,23.16,3.89,40.27,17.49,40.27,33.68,0,19.21-24.11,34.72-53.85,34.79-41.61.11-73.68-.05-98-.46-13.79.3-29.7.46-48,.46-23.77,0-43-12.45-43-27.81S92.12,136.75,115.89,136.75Z"/></g></g></svg>