<svg xmlns="http://www.w3.org/2000/svg" xmlns:xlink="http://www.w3.org/1999/xlink" viewBox="0 0 362.77 423.02"><defs><style>.cls-1,.cls-11{fill:none;}.cls-2{isolation:isolate;}.cls-3{clip-path:url(#clip-path);}.cls-4{fill:#ea5835;}.cls-5{fill:#f9c8a9;}.cls-6{fill:#d9d9d9;mix-blend-mode:multiply;}.cls-7{fill:#755f52;}.cls-8{fill:#d2ac92;}.cls-9{fill:#455154;}.cls-10{fill:#3a484c;}.cls-11{stroke:#d2ac92;stroke-miterlimit:10;}</style><clipPath id="clip-path"><circle class="cls-1" cx="181.39" cy="181.39" r="181.39"/></clipPath></defs><g class="cls-2"><g id="Laag_2" data-name="Laag 2"><g id="Laag_1-2" data-name="Laag 1"><g class="cls-3"><circle class="cls-4" cx="181.39" cy="181.39" r="181.39"/><rect class="cls-5" x="157.57" y="238.15" width="50.46" height="42.7"/><path class="cls-6" d="M208,242.57v-4.42H157.57V271C166,252.9,187.68,243.27,208,242.57Z"/><path class="cls-5" d="M289.5,154.35c-.42-8.81-3-15.87-12.66-9.21v-4.68l-4.31,3.73c-5.54-65.56-17.32-60.32-26-61.59-6.58,1.93-93.67.1-118.08.1-22.85-1.31-22.34,10-25.19,17.66-1.3,9.6-12,43.83-12,43.83l-5.4-4.3c0,1.81,0,3.56,0,5.25-9.68-6.66-12.24.4-12.67,9.21A58.65,58.65,0,0,0,76,175.18c6.43,19.89,15.45,13,15.45,13,13.88,27.18,34.78,42.08,50.17,51.29a74.66,74.66,0,0,0,29.41,9.91l.67.08a84.26,84.26,0,0,0,19.31,0l.68-.08a74.77,74.77,0,0,0,29.41-9.91c15.39-9.21,36.29-24.11,50.17-51.29,0,0,9,6.9,15.44-13A58.43,58.43,0,0,0,289.5,154.35Z"/><path class="cls-7" d="M103.29,100.36c2.85-7.63,2.34-19,25.19-17.66,24.41,0,111.5,1.83,118.08-.1,8.65,1.27,20.43-4,26,61.59l4.31-3.73c-.09-32.6-2.54-83.45-69.45-96a117.73,117.73,0,0,0-25.86-1.92h-.28a117.73,117.73,0,0,0-25.86,1.92c-66.53,12.52-69.34,62.85-69.45,95.47l5.4,4.3S102,110,103.29,100.36Z"/><circle class="cls-8" cx="247.41" cy="197" r="5.8"/><circle class="cls-8" cx="245.32" cy="176.68" r="5.8"/><circle class="cls-8" cx="261.25" cy="187.19" r="5.8"/><circle class="cls-8" cx="122.58" cy="197" r="5.8"/><circle class="cls-8" cx="124.67" cy="176.68" r="5.8"/><circle class="cls-8" cx="108.75" cy="187.19" r="5.8"/><path class="cls-9" d="M277,290.35c0-9.18-5.57-16.63-12.43-16.63H98.17c-6.87,0-12.44,7.45-12.44,16.63v8.54H277Z"/><path class="cls-10" d="M85.73,298.89V401c0,12.19,5.57,22.07,12.44,22.07H264.61C271.47,423,277,413.14,277,401V298.89Z"/><line class="cls-11" x1="174.49" y1="204.44" x2="221.99" y2="198.87"/><line class="cls-11" x1="221.89" y1="188.63" x2="223.89" y2="207.19"/></g></g></g></g></svg>