<svg xmlns="http://www.w3.org/2000/svg" viewBox="0 0 181.58 196.46"><defs><style>.cls-1{fill:#3a484c;}</style></defs><g id="Laag_2" data-name="Laag 2"><g id="Laag_1-2" data-name="Laag 1"><path class="cls-1" d="M181.58,137.74s-11.41-62.19-40.06-67.85,29.73,96,29.73,96-18.38-18.38-33-19.46,21.62,27,21.62,27-65.4-28.11-87.56-14.6,64.86,37.64,64.86,37.64h44.38Z"/><path class="cls-1" d="M156.43,178a153.27,153.27,0,0,0-67.85-33.58c-2.72-.58-1.57-4.75,1.15-4.17a156.86,156.86,0,0,1,56,24.09A160.28,160.28,0,0,1,159.48,175c2.11,1.82-1,4.87-3,3.06Z"/><path class="cls-1" d="M11.81,154.6A187.87,187.87,0,0,0,66,196h4.9a185.71,185.71,0,0,1-42.52-28.1,186.64,186.64,0,0,1-15-14.87C12.4,152,10.88,153.57,11.81,154.6Z"/><path class="cls-1" d="M40.64,179.87s-9.47,18.21-34.23,0C6.41,179.87,20.82,163.11,40.64,179.87Z"/><path class="cls-1" d="M23.15,165.5S30.21,146.23.08,140.21C.08,140.21-2.59,162.16,23.15,165.5Z"/><path class="cls-1" d="M55,188.18s13-15.85-13.39-31.51C41.64,156.67,31.85,176.5,55,188.18Z"/><path class="cls-1" d="M181.58,63.41S126.44,41,131.85,23.16s45.22,20,45.22,20-23.42-29.55-14.69-40c12-14.34,19.2,24.66,19.2,24.66Z"/></g></g></svg>