<svg xmlns="http://www.w3.org/2000/svg" viewBox="0 0 187.31 187.42"><defs><style>.cls-1{fill:#3a484c;}</style></defs><g id="Laag_2" data-name="Laag 2"><g id="Laag_1-2" data-name="Laag 1"><path class="cls-1" d="M0,128.7S11.41,66.5,40.05,60.85s-29.72,96-29.72,96,18.37-18.38,33-19.46-21.62,27-21.62,27,65.4-28.1,87.56-14.59-64.86,37.64-64.86,37.64H0Z"/><path class="cls-1" d="M25.15,169A153.21,153.21,0,0,1,93,135.4c2.72-.59,1.57-4.75-1.15-4.17a157,157,0,0,0-56,24.08A160.39,160.39,0,0,0,22.1,165.92c-2.12,1.82.95,4.87,3,3.06Z"/><path class="cls-1" d="M41.44,11.81A187.87,187.87,0,0,0,0,66v4.9A184.33,184.33,0,0,1,43,13.34C44,12.4,42.47,10.88,41.44,11.81Z"/><path class="cls-1" d="M16.16,40.64s-18.2-9.47,0-34.23C16.16,6.41,32.93,20.82,16.16,40.64Z"/><path class="cls-1" d="M30.54,23.15S49.81,30.21,55.82.08C55.82.08,33.88-2.59,30.54,23.15Z"/><path class="cls-1" d="M7.86,55s15.85,13,31.51-13.39C39.37,41.64,19.54,31.85,7.86,55Z"/><path class="cls-1" d="M183.32,187.42c3.41-16.39,8.73-50.34-4.5-55.12-17.53-6.34-11.06,48.18-11.06,48.18s-9.65-36.44-23.23-35.69c-17.22,1,10.9,37.05,15.35,42.63Z"/></g></g></svg>