<svg xmlns="http://www.w3.org/2000/svg" viewBox="0 0 180.81 332.9"><defs><style>.cls-1{fill:#cf8a6a;}</style></defs><g id="Laag_2" data-name="Laag 2"><g id="Laag_1-2" data-name="Laag 1"><path class="cls-1" d="M148,170.7l.14-12.89C149.11,71,92,0,92,0s-.81,1-2.29,2.86C78.9,16.78,33.25,80,32.42,156.56l-.15,13.52A44.52,44.52,0,0,0,.77,212L0,282.62a3,3,0,0,0,2.91,3h0a2.86,2.86,0,0,0,2.47-1.34,2.64,2.64,0,0,0,.52-1.57,38.08,38.08,0,0,1,25.65-35.3,11.72,11.72,0,0,0,8.07,10.11c-.59,6-1,12.37-1,19.07H39v.06a43.3,43.3,0,0,0,5.66,20.89,38.65,38.65,0,0,0,2.62-5.11,44.82,44.82,0,0,0,4.84,13.78,45.57,45.57,0,0,0,5.14-13.67,38.81,38.81,0,0,0,2.5,5.16,43.32,43.32,0,0,0,6.13-20.76.43.43,0,0,0,0-.05l-7.15-.08h0l7.48.08c.07-6.52-.15-12.76-.59-18.58l3.81,0c-.91,9.12-1.49,18.93-1.61,29.2h.52s0,.05,0,.07c-.19,17.62,8.69,32,8.69,32a59.05,59.05,0,0,0,4-7.82,69,69,0,0,0,7.42,21.09A68.76,68.76,0,0,0,96.26,312a59.76,59.76,0,0,0,3.82,7.91s9.19-14.18,9.38-31.8V288H110c.11-10.27-.25-20.09-1-29.23l3.8,0c-.56,5.82-.92,12.05-1,18.56l7.49.09h0l-5.51-.06h0l-1.64,0v.05a43.37,43.37,0,0,0,5.67,20.89,37.22,37.22,0,0,0,2.61-5.11A45.27,45.27,0,0,0,125.27,307a45,45,0,0,0,5.15-13.67,39.69,39.69,0,0,0,2.49,5.16A43.27,43.27,0,0,0,139,277.73v-.05l-1.64,0h0l2,0c.07-6.7-.17-13.11-.63-19.08a11.72,11.72,0,0,0,8.32-10.15h.12V248a38.07,38.07,0,0,1,26.91,36.55,2.62,2.62,0,0,0,.49,1.58,2.87,2.87,0,0,0,2.45,1.39h0a2.93,2.93,0,0,0,3-2.93l.77-70.67A44.53,44.53,0,0,0,148,170.7Zm-95.5,106h0Zm77.5.84,1.81,0,5.46.06Z"/></g></g></svg>