<svg xmlns="http://www.w3.org/2000/svg" viewBox="0 0 185.08 163.98"><defs><style>.cls-1{isolation:isolate;}.cls-2{fill:#fff;}.cls-10,.cls-14,.cls-3{mix-blend-mode:multiply;}.cls-4{fill:#bfe1e6;}.cls-5{fill:#36519f;}.cls-6{fill:#7699d0;}.cls-7{fill:#c39dc9;}.cls-8{fill:#ef85b4;}.cls-9{fill:#193f92;}.cls-10,.cls-12{fill:#f4aab5;}.cls-11{fill:#141a2f;}.cls-13{fill:#f9c8a9;}.cls-14{fill:#d9d9d9;}.cls-15{fill:#755f52;}.cls-16{fill:#d2ac92;}.cls-17{fill:#f5f5f5;}.cls-18{fill:#3d3d3b;}.cls-19{fill:#4f4241;}.cls-20{fill:#d9824c;}.cls-21{fill:#dba280;}</style></defs><g class="cls-1"><g id="Laag_2" data-name="Laag 2"><g id="Laag_1-2" data-name="Laag 1"><rect class="cls-2" x="74.24" y="102.77" width="32.1" height="38.67"/><path class="cls-2" d="M120.43,150.92H60.15l14.09-9.48h32.1Z"/><g class="cls-3"><path class="cls-4" d="M103.81,142.37H75.21a.93.93,0,1,1,0-1.85h28.6a.93.93,0,1,1,0,1.85Z"/></g><g class="cls-3"><path class="cls-4" d="M105,120.17h-29a.92.92,0,0,1,0-1.84h29a.92.92,0,0,1,0,1.84Z"/></g><path class="cls-2" d="M180.59.2V119.25H0V.2a0,0,0,0,1,0,0H180.57A0,0,0,0,1,180.59.2Z"/><polygon class="cls-5" points="180.59 0 180.59 116.47 0 116.47 0 0 0 0 180.59 0"/><polygon class="cls-2" points="175.69 4.18 175.69 112.28 4.9 112.28 4.9 4.18 4.9 4.18 175.69 4.18"/><rect class="cls-6" x="7.17" y="9.2" width="130.21" height="68.46"/><rect class="cls-7" x="102.7" y="80.23" width="34.66" height="6.81"/><path class="cls-5" d="M15.43,83.63a4.14,4.14,0,1,1-4.14-4.14A4.14,4.14,0,0,1,15.43,83.63Z"/><path class="cls-4" d="M75.91,82.2H19.74a1,1,0,1,1,0-2H75.91a1,1,0,1,1,0,2Z"/><path class="cls-4" d="M75.91,85.61H19.74a1,1,0,0,1,0-2H75.91a1,1,0,1,1,0,2Z"/><rect class="cls-4" x="139.11" y="9.2" width="23.91" height="13.93"/><path class="cls-4" d="M176.23,10.86H164.16a.37.37,0,1,1,0-.73h12.07a.37.37,0,0,1,0,.73Z"/><path class="cls-4" d="M176.23,13.57H164.16a.37.37,0,1,1,0-.73h12.07a.37.37,0,0,1,0,.73Z"/><rect class="cls-4" x="139.11" y="27.57" width="23.91" height="13.93"/><path class="cls-4" d="M176.23,29.24H164.16a.37.37,0,0,1,0-.74h12.07a.37.37,0,0,1,0,.74Z"/><path class="cls-4" d="M176.23,30.59H164.16a.37.37,0,0,1-.37-.37.36.36,0,0,1,.37-.36h12.07a.36.36,0,0,1,.36.36A.37.37,0,0,1,176.23,30.59Z"/><path class="cls-4" d="M176.23,31.94H164.16a.37.37,0,1,1,0-.73h12.07a.37.37,0,0,1,0,.73Z"/><rect class="cls-4" x="139.11" y="45.61" width="23.91" height="13.93"/><path class="cls-4" d="M176.23,47.27H164.16a.37.37,0,0,1-.37-.37.36.36,0,0,1,.37-.36h12.07a.36.36,0,0,1,.36.36A.37.37,0,0,1,176.23,47.27Z"/><path class="cls-4" d="M176.23,48.62H164.16a.37.37,0,1,1,0-.73h12.07a.37.37,0,0,1,0,.73Z"/><rect class="cls-4" x="139.11" y="64.94" width="23.91" height="13.93"/><path class="cls-4" d="M176.23,66.6H164.16a.37.37,0,1,1,0-.73h12.07a.37.37,0,0,1,0,.73Z"/><path class="cls-4" d="M176.23,69.31H164.16a.37.37,0,1,1,0-.73h12.07a.37.37,0,0,1,0,.73Z"/><path class="cls-8" d="M176.94,6.66H3.65c0-2.58,0-1.81-.07-4.12L177,2.44C177,3.65,176.94,3.93,176.94,6.66Z"/><path class="cls-2" d="M24.33,33.19c0-.16,0-.4,0-.68-.16-1.87-.35-4.16-1.65-5.72a6,6,0,0,0-3.89-2,9.49,9.49,0,0,0,3.87-2.22,9.69,9.69,0,0,0,2.66-4.51,7.49,7.49,0,0,0,1.66,5.74,6.39,6.39,0,0,0,2.15,1.57,6.91,6.91,0,0,0-2.88,1.79A7.67,7.67,0,0,0,24.33,33.19Z"/><path class="cls-2" d="M31.72,34.87c0-.07,0-.18,0-.32a4.85,4.85,0,0,0-.78-2.69,2.87,2.87,0,0,0-1.83-.94,4.48,4.48,0,0,0,3.07-3.17,3.54,3.54,0,0,0,.79,2.7,3.08,3.08,0,0,0,1,.75A3.23,3.23,0,0,0,32.6,32,3.6,3.6,0,0,0,31.72,34.87Z"/><path class="cls-2" d="M19.75,71.49a4.57,4.57,0,1,1-4.57-4.57A4.58,4.58,0,0,1,19.75,71.49Z"/><polygon class="cls-5" points="18.5 71.26 15.84 72.76 13.18 74.27 13.21 71.21 13.23 68.16 15.86 69.71 18.5 71.26"/><path class="cls-9" d="M48.44,158.9a2.82,2.82,0,0,1-1.74,2.4,37.35,37.35,0,0,1-27.74,0,2.81,2.81,0,0,1-1.78-2.44q-1-14.65-2-29.32a2.68,2.68,0,0,1,2-2.8,66.6,66.6,0,0,1,31.31.12,2.69,2.69,0,0,1,2,2.81Q49.5,144.3,48.44,158.9Z"/><ellipse class="cls-2" cx="32.88" cy="128.57" rx="15.16" ry="2.02"/><path class="cls-9" d="M49.62,154.16a12.28,12.28,0,0,1-5.55-1.35l1.13-2.19a9.5,9.5,0,0,0,7.39.58,7.19,7.19,0,0,0,2-12.8,7.21,7.21,0,0,0-5.45-1,8.43,8.43,0,0,0-5.43,3.69l-2.06-1.35a10.87,10.87,0,0,1,7-4.76,9.72,9.72,0,0,1,7.32,1.4,9.65,9.65,0,0,1-2.56,17.16A11.47,11.47,0,0,1,49.62,154.16Z"/><polygon class="cls-2" points="185.08 153.08 137.66 163.6 117.95 144.27 165.37 133.75 185.08 153.08"/><path class="cls-10" d="M161,138.13l-35.95,8a2.16,2.16,0,0,1-1.54-.08l-.13-.13c-.19-.19.18-.46.83-.61l35.95-8a2.16,2.16,0,0,1,1.54.08l.12.13C162,137.71,161.63,138,161,138.13Z"/><path class="cls-10" d="M162.16,139.29l-35.95,8a2.17,2.17,0,0,1-1.53-.09l-.13-.12c-.19-.19.18-.47.83-.61l36-8a2.21,2.21,0,0,1,1.54.09l.12.12C163.19,138.87,162.82,139.15,162.16,139.29Z"/><path class="cls-10" d="M164.14,141.23l-35.95,8a2.16,2.16,0,0,1-1.54-.08l-.12-.12c-.2-.2.17-.47.82-.62l36-8a2.14,2.14,0,0,1,1.54.09l.13.12C165.16,140.81,164.79,141.09,164.14,141.23Z"/><path class="cls-10" d="M165.39,142.45l-35.95,8a2.15,2.15,0,0,1-1.54-.09l-.12-.12c-.2-.19.17-.47.82-.61l36-8a2.16,2.16,0,0,1,1.54.08l.13.12C166.41,142,166,142.31,165.39,142.45Z"/><path class="cls-10" d="M170.74,148l-14.08,3.12a1.35,1.35,0,0,1-1-.05l-.38-.38c-.13-.12.11-.29.52-.39l14.08-3.12a1.34,1.34,0,0,1,1,.06l.39.37C171.39,147.76,171.15,147.94,170.74,148Z"/><path class="cls-10" d="M172,149.26l-14.08,3.12a1.34,1.34,0,0,1-1-.06l-.38-.37c-.13-.12.11-.3.52-.39l14.08-3.12a1.35,1.35,0,0,1,1,.05l.39.38C172.64,149,172.4,149.16,172,149.26Z"/><path class="cls-10" d="M173.37,150.61l-14.08,3.12a1.4,1.4,0,0,1-1,0l-.39-.38c-.12-.12.12-.3.53-.39l14.08-3.12a1.4,1.4,0,0,1,1,.05l.39.38C174,150.34,173.78,150.52,173.37,150.61Z"/><path class="cls-10" d="M174.62,151.83,160.54,155a1.39,1.39,0,0,1-1-.06l-.39-.37c-.12-.12.12-.3.53-.39L173.78,151a1.39,1.39,0,0,1,1,.06l.39.37C175.27,151.57,175,151.74,174.62,151.83Z"/><path class="cls-11" d="M124.36,134.15l38.08,22.23c.27.32.56.63.82,1a1.12,1.12,0,0,1-.12.8,1.11,1.11,0,0,1-.64.5l-1.23-.25-38.08-22.23a1.16,1.16,0,0,1-.42-1.58A1.18,1.18,0,0,1,124.36,134.15Z"/><path class="cls-12" d="M162.44,156.38c.27.32.56.63.82,1l1.54,1.77c-.76-.15-1.53-.29-2.3-.47l-1.23-.25Z"/><path class="cls-2" d="M49.4,16.36a13.17,13.17,0,0,1,16.65,8.37,13,13,0,0,1,0,8.19c1.62,2.72,3.22,5.48,4.82,8.23l-9.52-1.68a13,13,0,0,1-3.68,1.91,13.18,13.18,0,1,1-8.28-25Z"/><rect class="cls-13" x="97.94" y="51.52" width="10.09" height="8.54"/><path class="cls-14" d="M108,52.4v-.88H97.94v6.56C99.61,54.47,104,52.54,108,52.4Z"/><path class="cls-13" d="M124.32,34.76c-.08-1.77-.59-3.18-2.53-1.85V32l-.86.74c-1.11-13.11-3.46-12.06-5.19-12.32-1.32.39-18.74,0-23.62,0-4.57-.27-4.47,2-5,3.53-.26,1.92-2.39,8.76-2.39,8.76l-1.08-.86v1c-1.93-1.33-2.45.08-2.53,1.85a11.56,11.56,0,0,0,.55,4.16c1.29,4,3.09,2.6,3.09,2.6a25.4,25.4,0,0,0,10,10.26,15,15,0,0,0,5.89,2l.13,0a17.79,17.79,0,0,0,3.86,0l.14,0a14.91,14.91,0,0,0,5.88-2,25.27,25.27,0,0,0,10-10.26s1.81,1.38,3.09-2.6A11.56,11.56,0,0,0,124.32,34.76Z"/><path class="cls-15" d="M87.08,24c.57-1.53.47-3.8,5-3.53,4.88,0,22.3.36,23.62,0,1.73.26,4.08-.79,5.19,12.32l.86-.74c0-6.52-.5-16.69-13.89-19.21a23.49,23.49,0,0,0-5.17-.39h-.06a23.58,23.58,0,0,0-5.17.39c-13.3,2.5-13.86,12.57-13.89,19.09l1.08.86S86.82,25.88,87.08,24Z"/><circle class="cls-16" cx="115.91" cy="43.28" r="1.16"/><circle class="cls-16" cx="115.49" cy="39.22" r="1.16"/><circle class="cls-16" cx="118.67" cy="41.32" r="1.16"/><circle class="cls-16" cx="90.94" cy="43.28" r="1.16"/><circle class="cls-16" cx="91.36" cy="39.22" r="1.16"/><circle class="cls-16" cx="88.17" cy="41.32" r="1.16"/><circle class="cls-17" cx="99.16" cy="36.04" r="4.27"/><circle class="cls-18" cx="99.16" cy="36.05" r="2.97"/><circle class="cls-17" cx="108.24" cy="36.04" r="4.27"/><circle class="cls-18" cx="108.24" cy="36.05" r="2.97"/><path class="cls-19" d="M103.47,46.1a3.33,3.33,0,0,0,3.32-3.33h-6.65A3.33,3.33,0,0,0,103.47,46.1Z"/><path class="cls-20" d="M122.6,63.38c0-1.84-1.12-3.32-2.49-3.32H86.82c-1.37,0-2.48,1.48-2.48,3.32v1.71H122.6Z"/><rect class="cls-21" x="84.34" y="65.09" width="38.26" height="12.41"/></g></g></g></svg>