<svg xmlns="http://www.w3.org/2000/svg" viewBox="0 0 275.1 404.69"><defs><style>.cls-1{fill:#3a9aa9;}</style></defs><g id="Laag_2" data-name="Laag 2"><g id="Laag_1-2" data-name="Laag 1"><path class="cls-1" d="M275.1,164.92c0-21.12-10.82-39.06-26-45.92.05-1,.12-2,.12-3,0-27-17.7-48.93-39.54-48.93h-2.19c-8.1-38.54-36.31-67-70-67s-61.88,28.5-70,67H65.38C43.54,67,25.84,89,25.84,116c0,1,.07,2,.12,3-15.14,6.86-26,24.8-26,45.92,0,27,17.7,48.94,39.53,48.94H56.19a33,33,0,0,0-7,14.62h-.76c-7.53,0-13.63,7.55-13.63,16.87,0,.36,0,.7,0,1.05-5.23,2.36-9,8.55-9,15.84,0,9.32,6.11,16.88,13.64,16.88h25l45.25,62.53v63H157V298.37l46.18-63.81h44.24c10.19,0,18.45-10.23,18.45-22.84a26.81,26.81,0,0,0-2.68-11.84C270.55,191,275.1,178.61,275.1,164.92ZM109.77,307.13l-19.53-28h16.92a10.87,10.87,0,0,0,2.06-.28V235.41c-2.48-4.19-6.46-6.93-11-6.93h-.76a33,33,0,0,0-7-14.62h19.25v93.27ZM157,263.84V234.56h20.43Z"/></g></g></svg>